<svg width="33" height="32" viewBox="0 0 33 32" fill="none" xmlns="http://www.w3.org/2000/svg">
<g clip-path="url(#clip0_803_3328)">
<path d="M18.7222 21.7143C19.0054 21.7146 19.2778 21.8261 19.4837 22.0261C19.6897 22.2261 19.8136 22.4994 19.8302 22.7902C19.8468 23.081 19.7548 23.3673 19.573 23.5907C19.3913 23.814 19.1334 23.9576 18.8522 23.992L18.7222 24H14.2778C13.9946 23.9997 13.7222 23.8881 13.5163 23.6882C13.3103 23.4882 13.1864 23.2149 13.1698 22.9241C13.1532 22.6333 13.2452 22.347 13.427 22.1236C13.6087 21.9002 13.8666 21.7567 14.1478 21.7223L14.2778 21.7143H18.7222ZM22.0556 14.8571C22.3502 14.8571 22.6329 14.9776 22.8412 15.1919C23.0496 15.4062 23.1667 15.6969 23.1667 16C23.1667 16.3031 23.0496 16.5938 22.8412 16.8081C22.6329 17.0224 22.3502 17.1429 22.0556 17.1429H10.9444C10.6498 17.1429 10.3671 17.0224 10.1588 16.8081C9.9504 16.5938 9.83333 16.3031 9.83333 16C9.83333 15.6969 9.9504 15.4062 10.1588 15.1919C10.3671 14.9776 10.6498 14.8571 10.9444 14.8571H22.0556ZM25.3889 8C25.6836 8 25.9662 8.12041 26.1746 8.33474C26.3829 8.54906 26.5 8.83975 26.5 9.14286C26.5 9.44596 26.3829 9.73665 26.1746 9.95098C25.9662 10.1653 25.6836 10.2857 25.3889 10.2857H7.61111C7.31643 10.2857 7.03381 10.1653 6.82544 9.95098C6.61706 9.73665 6.5 9.44596 6.5 9.14286C6.5 8.83975 6.61706 8.54906 6.82544 8.33474C7.03381 8.12041 7.31643 8 7.61111 8H25.3889Z" fill="white"/>
</g>
<defs>
<clipPath id="clip0_803_3328">
<rect width="32" height="32" fill="white" transform="translate(0.5)"/>
</clipPath>
</defs>
</svg>
