<svg width="32" height="33" viewBox="0 0 32 33" fill="none" xmlns="http://www.w3.org/2000/svg">
<path d="M28.2375 13.3061C27.7625 12.8186 27.275 12.3061 27.0875 11.8686C26.9 11.4311 26.9125 10.7811 26.9 10.1186C26.8875 8.90605 26.8625 7.51855 25.9 6.55605C24.9375 5.59355 23.55 5.56855 22.3375 5.55605C21.675 5.54355 21 5.53105 20.5875 5.36855C20.175 5.20605 19.6375 4.69355 19.15 4.21855C18.2875 3.39355 17.3 2.45605 16 2.45605C14.7 2.45605 13.7125 3.39355 12.85 4.21855C12.3625 4.69355 11.85 5.18105 11.4125 5.36855C10.975 5.55605 10.325 5.54355 9.6625 5.55605C8.45 5.56855 7.0625 5.59355 6.1 6.55605C5.1375 7.51855 5.1125 8.90605 5.1 10.1186C5.0875 10.7811 5.075 11.4561 4.9125 11.8686C4.75 12.2811 4.2375 12.8186 3.7625 13.3061C2.9375 14.1686 2 15.1561 2 16.4561C2 17.7561 2.9375 18.7436 3.7625 19.6061C4.2375 20.0936 4.725 20.6061 4.9125 21.0436C5.1 21.4811 5.0875 22.1311 5.1 22.7936C5.1125 24.0061 5.1375 25.3936 6.1 26.3561C7.0625 27.3186 8.45 27.3436 9.6625 27.3561C10.325 27.3686 11 27.3811 11.4125 27.5436C11.825 27.7061 12.3625 28.2186 12.85 28.6936C13.7125 29.5186 14.7 30.4561 16 30.4561C17.3 30.4561 18.2875 29.5186 19.15 28.6936C19.6375 28.2186 20.15 27.7311 20.5875 27.5436C21.025 27.3561 21.675 27.3686 22.3375 27.3561C23.55 27.3436 24.9375 27.3186 25.9 26.3561C26.8625 25.3936 26.8875 24.0061 26.9 22.7936C26.9125 22.1311 26.925 21.4561 27.0875 21.0436C27.25 20.6311 27.7625 20.0936 28.2375 19.6061C29.0625 18.7436 30 17.7561 30 16.4561C30 15.1561 29.0625 14.1686 28.2375 13.3061ZM22.1875 14.1811L14.8625 21.1811C14.6731 21.3592 14.4225 21.4577 14.1625 21.4561C13.9063 21.457 13.6598 21.3584 13.475 21.1811L9.8125 17.6811C9.71092 17.5924 9.6283 17.4842 9.56962 17.3628C9.51094 17.2414 9.47741 17.1094 9.47104 16.9748C9.46466 16.8401 9.48559 16.7056 9.53255 16.5792C9.5795 16.4528 9.65153 16.3373 9.74429 16.2394C9.83706 16.1416 9.94864 16.0636 10.0723 16.01C10.196 15.9564 10.3293 15.9283 10.4641 15.9275C10.5989 15.9268 10.7325 15.9532 10.8568 16.0054C10.9811 16.0576 11.0936 16.1343 11.1875 16.2311L14.1625 19.0686L20.8125 12.7311C21.0069 12.5614 21.2594 12.4735 21.5172 12.4857C21.7749 12.4979 22.018 12.6093 22.1955 12.7965C22.3731 12.9837 22.4714 13.2324 22.4699 13.4904C22.4684 13.7484 22.3672 13.9959 22.1875 14.1811Z" fill="#FBFAF2"/>
</svg>
