<svg width="32" height="32" viewBox="0 0 32 32" fill="none" xmlns="http://www.w3.org/2000/svg">
<path d="M12.494 20.0675L19.3878 13.1411L27.639 21.3724C25.7107 25.8027 21.3086 28.901 16.1906 28.901C11.7106 28.901 7.77908 26.527 5.5752 22.9635L10.6456 18.2104L12.494 20.0675Z" fill="#6F8C8E"/>
<path d="M14.8261 12.8254C14.8261 13.598 14.229 14.195 13.4565 14.195C12.729 14.195 12.0869 13.5938 12.0869 12.8254C12.0869 12.0529 12.684 11.4558 13.4565 11.4558C14.229 11.4558 14.8261 12.0529 14.8261 12.8254Z" fill="#6F8C8E" stroke="#6F8C8E"/>
<path d="M28.4469 18.1587C28.5374 17.5498 28.5843 16.9267 28.5843 16.2927C28.5843 9.33313 23.2523 4 16.2927 4C9.33313 4 4 9.33313 4 16.2927C4 16.9267 4.04687 17.5498 4.13733 18.1587" stroke="#6F8C8E"/>
<path d="M28.4469 18.1587C28.5374 17.5498 28.5843 16.9267 28.5843 16.2927C28.5843 9.33313 23.2523 4 16.2927 4C9.33313 4 4 9.33313 4 16.2927C4 16.9267 4.04687 17.5498 4.13733 18.1587" stroke="#6F8C8E"/>
</svg>
