<svg width="145" height="103" viewBox="0 0 145 103" fill="none" xmlns="http://www.w3.org/2000/svg">
<path d="M3.64582 102.975C3.11421 102.975 2.62571 102.887 2.18031 102.71C1.73491 102.534 1.35057 102.269 1.0237 101.915C0.70043 101.562 0.448992 101.123 0.269395 100.597C0.0897984 100.07 0 99.466 0 98.7839C0 98.1018 0.0862069 97.5116 0.25862 97.0097C0.431033 96.5044 0.682469 96.0661 1.01652 95.6915C1.33979 95.3275 1.72413 95.0518 2.16953 94.861C2.61493 94.6701 3.11062 94.5747 3.66018 94.5747C3.93317 94.5747 4.1882 94.5959 4.42886 94.6348C4.66593 94.6737 4.88863 94.7267 5.09337 94.7868C5.26937 94.8398 5.44897 94.9105 5.63216 94.9917C5.81535 95.073 5.99853 95.1649 6.17454 95.2603V96.5609H6.08834C5.99495 96.4725 5.87282 96.3701 5.72196 96.2464C5.5711 96.1227 5.3915 96.0025 5.17598 95.8824C4.96765 95.7693 4.74136 95.6774 4.49711 95.6032C4.25285 95.5289 3.96909 95.4936 3.64941 95.4936C3.30458 95.4936 2.97413 95.5643 2.66522 95.7056C2.35632 95.847 2.08333 96.0555 1.84985 96.3312C1.61997 96.6068 1.44396 96.9532 1.31465 97.3702C1.18534 97.7872 1.12428 98.2573 1.12428 98.7803C1.12428 99.3352 1.19252 99.8158 1.32543 100.215C1.46192 100.618 1.64511 100.954 1.87859 101.229C2.10488 101.498 2.37068 101.7 2.676 101.837C2.98131 101.975 3.30458 102.042 3.64941 102.042C3.96191 102.042 4.25285 102.003 4.51866 101.929C4.78446 101.851 5.02153 101.756 5.22986 101.639C5.43101 101.526 5.60342 101.413 5.7471 101.293C5.89437 101.176 6.00572 101.074 6.09193 100.989H6.17454V102.276C5.99494 102.36 5.82612 102.438 5.66808 102.516C5.51003 102.594 5.31607 102.668 5.09337 102.739C4.8563 102.816 4.63719 102.873 4.43604 102.912C4.2349 102.951 3.97269 102.972 3.64582 102.972V102.975Z" fill="white"/>
<path d="M9.08363 102.83V95.6808H6.35376V94.7231H12.8983V95.6808H10.1684V102.83H9.08722H9.08363Z" fill="white"/>
<path d="M18.8505 97.1652C18.8505 97.5186 18.7894 97.8508 18.6637 98.1653C18.538 98.4799 18.3656 98.7485 18.1429 98.9676C17.8627 99.2432 17.5322 99.4518 17.1551 99.5931C16.7779 99.7345 16.2966 99.8052 15.7183 99.8052H14.8024V102.827H13.7212V94.7196H15.765C16.2463 94.7196 16.6558 94.7584 16.9934 94.8397C17.3311 94.921 17.6292 95.0482 17.8878 95.2249C18.1896 95.4335 18.4266 95.695 18.599 96.013C18.7714 96.3311 18.8541 96.7163 18.8541 97.1652H18.8505ZM17.7262 97.1934C17.7262 96.9143 17.6795 96.6704 17.5825 96.4619C17.4855 96.2569 17.3383 96.0873 17.1443 95.9565C16.9719 95.8434 16.7743 95.7657 16.5445 95.7162C16.3182 95.6702 16.0344 95.6455 15.6968 95.6455H14.8024V98.8863H15.5387C15.9769 98.8863 16.3289 98.8509 16.5983 98.7803C16.8677 98.7096 17.0904 98.5824 17.27 98.4021C17.4317 98.2395 17.5466 98.0593 17.6184 97.8685C17.6903 97.6776 17.7262 97.4514 17.7262 97.1934Z" fill="white"/>
<path d="M25.6356 95.6526C25.9445 96.0095 26.1852 96.4513 26.3576 96.9743C26.53 97.5009 26.6126 98.1017 26.6126 98.7767C26.6126 99.4517 26.53 100.028 26.3612 100.558C26.1924 101.088 25.9517 101.533 25.6356 101.894C25.3051 102.272 24.9172 102.551 24.4754 102.731C24.0336 102.912 23.5451 103 23.0135 103C22.4819 103 21.9682 102.908 21.5264 102.721C21.0846 102.537 20.7075 102.261 20.3914 101.894C20.0789 101.533 19.8382 101.092 19.6694 100.565C19.5006 100.038 19.418 99.4447 19.418 98.7803C19.418 98.1158 19.5042 97.4974 19.673 96.9814C19.8418 96.4654 20.0825 96.0236 20.395 95.6526C20.7075 95.2921 21.0846 95.02 21.5264 94.8326C21.9682 94.6453 22.4639 94.5535 23.0099 94.5535C23.5559 94.5535 24.0623 94.6489 24.5077 94.8432C24.9531 95.0341 25.3267 95.3062 25.632 95.6561L25.6356 95.6526ZM25.4883 98.7767C25.4883 98.2395 25.4309 97.7624 25.3123 97.3489C25.1974 96.9355 25.0322 96.5926 24.8202 96.3205C24.6047 96.0413 24.3461 95.8328 24.0408 95.6914C23.7355 95.5501 23.3942 95.4829 23.0171 95.4829C22.6399 95.4829 22.2807 95.5501 21.9862 95.6879C21.6917 95.8257 21.433 96.0343 21.2068 96.324C20.9912 96.5997 20.826 96.9461 20.7111 97.3631C20.5961 97.7801 20.5387 98.2537 20.5387 98.7803C20.5387 99.844 20.7613 100.657 21.2103 101.222C21.6593 101.788 22.2592 102.071 23.0135 102.071C23.7678 102.071 24.3677 101.788 24.8131 101.222C25.2585 100.657 25.4812 99.844 25.4812 98.7803L25.4883 98.7767Z" fill="white"/>
<path d="M33.6424 102.83H32.5648V96.3947L28.8903 102.83H27.7983V94.7231H28.8759V101.056L32.5038 94.7231H33.646V102.83H33.6424Z" fill="white"/>
<path d="M37.1908 102.83V95.6808H34.4609V94.7231H41.0054V95.6808H38.2756V102.83H37.1944H37.1908Z" fill="white"/>
<path d="M41.8247 102.83V94.7231H46.9109V95.6808H42.9059V97.9038H46.6379V98.8616H42.9059V101.873H46.9109V102.83H41.8247Z" fill="white"/>
<path d="M54.0295 102.83H52.9483V95.6809H50.2076C50.1969 96.0908 50.1825 96.4902 50.1645 96.8825C50.1466 97.2748 50.1322 97.6211 50.1214 97.9321C50.0927 98.699 50.046 99.3316 49.9813 99.8335C49.9167 100.335 49.8341 100.752 49.7335 101.092C49.6365 101.42 49.518 101.689 49.3851 101.894C49.2522 102.099 49.1085 102.268 48.9505 102.406C48.7852 102.555 48.6092 102.668 48.4224 102.742C48.2357 102.816 48.0166 102.855 47.7687 102.855C47.6933 102.855 47.6143 102.855 47.5352 102.848C47.4562 102.841 47.3952 102.841 47.3521 102.841V101.795H47.4275C47.4634 101.798 47.4957 101.802 47.5209 101.806C47.546 101.809 47.5855 101.813 47.6358 101.813C47.7651 101.813 47.8872 101.791 48.0022 101.752C48.1135 101.714 48.2105 101.65 48.2931 101.569C48.541 101.325 48.7206 100.894 48.8355 100.272C48.9505 99.6497 49.0295 98.8121 49.0798 97.7589C49.0977 97.402 49.1157 96.9319 49.1336 96.3488C49.1516 95.7657 49.1696 95.2285 49.1839 94.7373H54.0295V102.845V102.83Z" fill="white"/>
<path d="M61.1636 100.318C61.1636 100.71 61.0882 101.067 60.9337 101.385C60.7793 101.703 60.5745 101.965 60.3159 102.162C60.0106 102.403 59.6837 102.572 59.3317 102.675C58.9797 102.777 58.5307 102.827 57.9775 102.827H55.6787V94.7196H56.7599V97.9003H58.0099C58.563 97.9003 59.0156 97.9321 59.364 97.9957C59.7125 98.0593 60.0429 98.2113 60.3518 98.4516C60.6284 98.6672 60.8331 98.9322 60.9624 99.2468C61.0918 99.5613 61.16 99.9218 61.16 100.321L61.1636 100.318ZM60.0321 100.339C60.0321 100.067 59.989 99.8264 59.8992 99.6214C59.8094 99.4164 59.6694 99.2468 59.4754 99.1195C59.2742 98.9852 59.0443 98.904 58.7821 98.8757C58.5199 98.8474 58.15 98.8333 57.6722 98.8333H56.7599V101.912H57.6435C58.1284 101.912 58.4984 101.887 58.7606 101.841C59.0192 101.795 59.2491 101.703 59.4466 101.569C59.6514 101.427 59.7987 101.261 59.8921 101.07C59.9854 100.88 60.0321 100.636 60.0321 100.342V100.339Z" fill="white"/>
<path d="M68.1034 102.83H67.0222V98.8616H63.2794V102.83H62.1982V94.7231H63.2794V97.9038H67.0222V94.7231H68.1034V102.83Z" fill="white"/>
<path d="M68.8718 102.83L71.6125 94.7231H72.9451L75.6857 102.83H74.5435L73.8071 100.565H70.7001L69.9638 102.83H68.8718ZM73.509 99.6461L72.2518 95.8222L71.0018 99.6461H73.509Z" fill="white"/>
<path d="M81.6483 102.83H80.5672V99.6073H79.3387L76.907 102.83H75.6067L78.218 99.4447C77.672 99.2609 77.2482 98.9746 76.9465 98.5859C76.6448 98.1971 76.4975 97.6812 76.4975 97.0309C76.4975 96.6174 76.5837 96.2604 76.7561 95.96C76.9285 95.6596 77.1584 95.4122 77.4422 95.2108C77.7008 95.0306 78.0025 94.9033 78.3473 94.8291C78.6922 94.7584 79.0765 94.7196 79.4932 94.7196H81.6447V102.827L81.6483 102.83ZM80.5672 98.7061V95.6455H79.4429C79.1304 95.6455 78.8789 95.6667 78.6886 95.7056C78.4982 95.7445 78.3258 95.8187 78.1713 95.9247C78.0025 96.0378 77.8732 96.1968 77.7798 96.3983C77.6864 96.6032 77.6361 96.8259 77.6361 97.0698C77.6361 97.3596 77.6685 97.5999 77.7367 97.7942C77.805 97.9886 77.9127 98.1583 78.06 98.3067C78.2252 98.4657 78.4228 98.5753 78.6598 98.6283C78.8969 98.6813 79.1699 98.7096 79.486 98.7096H80.5672V98.7061Z" fill="white"/>
<path d="M92.8049 102.83H91.4292L88.5556 99.116H87.8732V102.83H86.792V94.7231H87.8732V98.3774C88.3006 98.3632 88.6382 98.2572 88.8861 98.0558C89.1339 97.8579 89.3387 97.5681 89.4967 97.197C89.5614 97.0344 89.6224 96.8789 89.6727 96.7305C89.7266 96.582 89.7697 96.4584 89.802 96.3559C90.0211 95.7339 90.2977 95.3062 90.639 95.073C90.9766 94.8397 91.4471 94.7231 92.047 94.7231H92.381V95.6879H92.1081C91.6627 95.6879 91.3538 95.7727 91.1742 95.9459C90.9946 96.1191 90.8329 96.4442 90.6821 96.9249C90.5312 97.4055 90.366 97.7554 90.1792 97.978C89.9924 98.2007 89.7697 98.3986 89.5075 98.5682L92.8049 102.834V102.83Z" fill="white"/>
<path d="M99.2844 95.6526C99.5933 96.0095 99.8339 96.4513 100.006 96.9743C100.179 97.5009 100.265 98.1017 100.265 98.7767C100.265 99.4517 100.182 100.028 100.014 100.558C99.8447 101.088 99.604 101.533 99.288 101.894C98.9575 102.272 98.5696 102.551 98.1278 102.731C97.6859 102.912 97.1974 103 96.6658 103C96.1342 103 95.6206 102.908 95.1788 102.721C94.737 102.537 94.3598 102.261 94.0437 101.894C93.7312 101.533 93.4906 101.092 93.3217 100.565C93.1529 100.038 93.0703 99.4447 93.0703 98.7803C93.0703 98.1158 93.1565 97.4974 93.3253 96.9814C93.4942 96.4654 93.7348 96.0236 94.0473 95.6526C94.3598 95.2921 94.737 95.02 95.1824 94.8326C95.6242 94.6453 96.1199 94.5535 96.6658 94.5535C97.2118 94.5535 97.7183 94.6489 98.1637 94.8432C98.6091 95.0341 98.9826 95.3062 99.288 95.6561L99.2844 95.6526ZM99.1371 98.7767C99.1371 98.2395 99.0796 97.7624 98.9611 97.3489C98.8461 96.9355 98.6809 96.5926 98.469 96.3205C98.2535 96.0413 97.9949 95.8328 97.6895 95.6914C97.3842 95.5501 97.043 95.4829 96.6658 95.4829C96.2887 95.4829 95.9295 95.5501 95.6349 95.6879C95.3404 95.8257 95.0818 96.0343 94.8555 96.324C94.64 96.5997 94.4748 96.9461 94.3598 97.3631C94.2449 97.7801 94.1874 98.2537 94.1874 98.7803C94.1874 99.844 94.4101 100.657 94.8591 101.222C95.3081 101.788 95.9079 102.071 96.6622 102.071C97.4166 102.071 98.0164 101.788 98.4618 101.222C98.9072 100.657 99.1299 99.844 99.1299 98.7803L99.1371 98.7767Z" fill="white"/>
<path d="M108.415 102.83H107.334V95.8434L105.215 100.597H104.561L102.46 95.8434V102.83H101.451V94.7231H102.927L104.96 99.2362L106.921 94.7231H108.423V102.83H108.415Z" fill="white"/>
<path d="M115.969 102.83H114.888V95.6808H111.145V102.83H110.064V94.7231H115.969V102.83Z" fill="white"/>
<path d="M116.741 102.83L119.482 94.7231H120.815L123.555 102.83H122.413L121.677 100.565H118.57L117.833 102.83H116.741ZM121.379 99.6461L120.121 95.8222L118.871 99.6461H121.379Z" fill="white"/>
<path d="M130.229 102.83H129.148V98.8616H125.405V102.83H124.324V94.7231H125.405V97.9038H129.148V94.7231H130.229V102.83Z" fill="white"/>
<path d="M137.726 102.83H136.648V96.3947L132.974 102.83H131.882V94.7231H132.959V101.056L136.587 94.7231H137.73V102.83H137.726Z" fill="white"/>
<path d="M144.565 102.83H143.484V99.6073H142.255L139.824 102.83H138.523L141.135 99.4447C140.589 99.2609 140.165 98.9746 139.863 98.5859C139.562 98.2007 139.414 97.6812 139.414 97.0309C139.414 96.6174 139.5 96.2604 139.673 95.96C139.845 95.6596 140.075 95.4122 140.359 95.2108C140.618 95.0306 140.919 94.9033 141.268 94.8291C141.613 94.7584 141.997 94.7196 142.414 94.7196H144.565V102.827V102.83ZM143.484 98.7061V95.6455H142.36C142.047 95.6455 141.796 95.6667 141.605 95.7056C141.415 95.7445 141.243 95.8187 141.088 95.9247C140.919 96.0378 140.79 96.1968 140.697 96.3983C140.603 96.6032 140.553 96.8259 140.553 97.0698C140.553 97.3596 140.585 97.5999 140.653 97.7942C140.722 97.9886 140.829 98.1583 140.98 98.3067C141.146 98.4657 141.343 98.5753 141.58 98.6283C141.817 98.6813 142.09 98.7096 142.406 98.7096H143.487L143.484 98.7061Z" fill="white"/>
<path d="M13.0673 84.8982H10.6751V69.288H2.39565V84.8982H0.00341797V67.1923H13.0673V84.8982Z" fill="#19CDA2"/>
<path d="M28.1962 84.8982H25.8039V77.8583H23.0848L17.7077 84.8982H14.8306L20.6064 77.5013C19.3995 77.0984 18.462 76.4729 17.7975 75.6282C17.133 74.7836 16.7989 73.6527 16.7989 72.2319C16.7989 71.3272 16.9893 70.5497 17.3737 69.8959C17.758 69.2421 18.2609 68.6978 18.8895 68.2596C19.4606 67.8638 20.1287 67.5846 20.8938 67.4255C21.6588 67.2665 22.5065 67.1887 23.4333 67.1887H28.1962V84.8947V84.8982ZM25.8039 75.8968V69.2138H23.3147C22.6215 69.2138 22.0647 69.2562 21.6481 69.3446C21.2278 69.4329 20.8471 69.5919 20.4986 69.8217C20.1287 70.069 19.8377 70.4119 19.6294 70.8572C19.4211 71.3025 19.3169 71.7902 19.3169 72.3203C19.3169 72.9529 19.3923 73.483 19.5396 73.9C19.6869 74.3206 19.9275 74.6917 20.258 75.0168C20.6208 75.3667 21.0626 75.6 21.587 75.7201C22.1114 75.8403 22.7185 75.8968 23.4117 75.8968H25.8039Z" fill="#19CDA2"/>
<path d="M36.0519 84.8982V69.288H30.0103V67.1958H44.4893V69.288H38.4477V84.8982H36.0555H36.0519Z" fill="#19CDA2"/>
<path d="M58.1645 79.4168C58.1645 80.2721 57.9956 81.0496 57.658 81.7458C57.3204 82.442 56.8642 83.011 56.2931 83.4457C55.6178 83.9688 54.8922 84.3398 54.1164 84.5625C53.3405 84.7851 52.3455 84.8947 51.1207 84.8947H46.3003V67.1887H48.6925V74.1333H51.1925C52.4174 74.1333 53.4159 74.204 54.1882 74.3418C54.9605 74.4796 55.6896 74.8118 56.3757 75.3349C56.9863 75.8014 57.4389 76.381 57.7298 77.0702C58.0208 77.7593 58.1645 78.5403 58.1645 79.4133V79.4168ZM55.6645 79.4628C55.6645 78.869 55.5639 78.346 55.3699 77.8936C55.1724 77.4412 54.8599 77.0772 54.4324 76.798C53.9906 76.5047 53.477 76.328 52.8987 76.2644C52.3204 76.2008 51.5014 76.1689 50.4454 76.1689H48.6925V82.8873H50.3843C51.4547 82.8873 52.2809 82.8343 52.8556 82.7318C53.4303 82.6293 53.9368 82.4314 54.3714 82.1381C54.824 81.8306 55.1508 81.4666 55.3556 81.0496C55.5603 80.6325 55.6645 80.106 55.6645 79.4628ZM62.1659 84.8982H59.7737V67.1923H62.1659V84.8982Z" fill="#19CDA2"/>
<path d="M78.7454 84.8982H76.364V70.843L68.2318 84.8982H65.8145V67.1923H68.1959V81.0213L76.2203 67.1923H78.7454V84.8982ZM76.9818 61.8911C76.9495 63.0785 76.5651 64.0398 75.8324 64.7678C75.0996 65.4959 73.9897 65.8634 72.5098 65.8634C71.0299 65.8634 69.92 65.4994 69.1873 64.7678C68.4545 64.0363 68.0702 63.0785 68.0379 61.8911H70.1894C70.2038 62.7781 70.4085 63.4178 70.7929 63.8101C71.1772 64.2024 71.7519 64.4003 72.5098 64.4003C73.2677 64.4003 73.8496 64.2059 74.2304 63.8172C74.6111 63.4284 74.8123 62.7852 74.8302 61.8911H76.9818Z" fill="#19CDA2"/>
<path d="M99.4675 67.1958L92.9409 82.1063C92.6679 82.7318 92.359 83.2372 92.0178 83.6154C91.6766 83.997 91.3174 84.2798 90.9474 84.4706C90.5774 84.6685 90.2111 84.7993 89.8519 84.8629C89.4927 84.9265 89.1335 84.9583 88.7707 84.9583C88.4474 84.9583 88.0703 84.9513 87.6356 84.9336C87.201 84.9159 86.9244 84.9053 86.8023 84.8982V82.7H86.9711C87.0933 82.7142 87.2765 82.7354 87.5207 82.753C87.765 82.7742 88.0775 82.7813 88.4582 82.7813C88.6342 82.7813 88.8461 82.7707 89.0868 82.753C89.3275 82.7318 89.5501 82.6753 89.7513 82.5799C89.9848 82.4703 90.2039 82.3219 90.4086 82.1346C90.6134 81.9472 90.8001 81.6539 90.969 81.2475L91.3784 80.3074L85.0566 67.1923H87.7039L92.5853 77.6073L96.9962 67.1923H99.4603L99.4675 67.1958Z" fill="white"/>
<path d="M111.806 69.288H103.527V84.8982H101.135V67.1923H111.806V69.2845V69.288Z" fill="white"/>
<path d="M126.418 69.2279C127.104 70.0054 127.635 70.9667 128.013 72.1188C128.39 73.2674 128.58 74.5785 128.58 76.0558C128.58 77.5331 128.393 78.7877 128.023 79.9433C127.653 81.099 127.118 82.0709 126.414 82.8555C125.681 83.6789 124.827 84.2868 123.846 84.6791C122.869 85.0714 121.791 85.2693 120.613 85.2693C119.435 85.2693 118.3 85.0678 117.327 84.6614C116.353 84.2585 115.513 83.6542 114.812 82.8555C114.119 82.0709 113.587 81.1025 113.217 79.9539C112.847 78.8054 112.661 77.5048 112.661 76.0523C112.661 74.5997 112.847 73.2532 113.221 72.1294C113.595 71.002 114.13 70.0372 114.823 69.2279C115.516 68.4433 116.35 67.846 117.33 67.4396C118.311 67.0332 119.403 66.8282 120.613 66.8282C121.824 66.8282 122.941 67.0367 123.925 67.4573C124.909 67.8778 125.739 68.468 126.414 69.2279H126.418ZM126.091 76.0523C126.091 74.8789 125.962 73.8399 125.703 72.9387C125.444 72.034 125.082 71.2847 124.615 70.691C124.14 70.0796 123.566 69.6237 122.89 69.3162C122.219 69.0123 121.464 68.8568 120.624 68.8568C119.783 68.8568 118.993 69.0052 118.347 69.3021C117.697 69.599 117.125 70.0619 116.623 70.6875C116.148 71.2883 115.782 72.0481 115.531 72.9599C115.276 73.8717 115.15 74.9037 115.15 76.0523C115.15 78.3742 115.646 80.1519 116.637 81.3853C117.628 82.6187 118.957 83.2336 120.624 83.2336C122.291 83.2336 123.62 82.6187 124.607 81.3853C125.595 80.1519 126.087 78.3742 126.087 76.0523H126.091Z" fill="white"/>
<path d="M144.327 84.8982H141.935V69.288H135.868C135.843 70.1856 135.81 71.0586 135.771 71.9103C135.731 72.762 135.699 73.5254 135.674 74.2004C135.609 75.872 135.505 77.2574 135.365 78.3495C135.225 79.4415 135.042 80.3604 134.815 81.0955C134.596 81.8164 134.341 82.3996 134.047 82.8449C133.752 83.2902 133.433 83.6612 133.088 83.9617C132.725 84.2868 132.337 84.5306 131.92 84.6932C131.504 84.8558 131.022 84.9371 130.476 84.9371C130.308 84.9371 130.135 84.93 129.963 84.9194C129.79 84.9088 129.654 84.9017 129.557 84.9017V82.6187H129.726C129.805 82.6258 129.873 82.6364 129.93 82.6434C129.988 82.6505 130.071 82.654 130.185 82.654C130.476 82.654 130.746 82.6116 130.997 82.5233C131.245 82.4349 131.461 82.3006 131.637 82.1204C132.186 81.5903 132.585 80.6431 132.84 79.286C133.095 77.9254 133.271 76.0982 133.379 73.7975C133.418 73.02 133.458 71.9951 133.501 70.7193C133.54 69.4435 133.576 68.2701 133.609 67.1993H144.327V84.9053V84.8982Z" fill="white"/>
<path d="M76.6827 9.8244V0L64.3396 7.54298V15.611L76.6827 9.8244Z" fill="white"/>
<path d="M49.976 23.8179L41.6819 27.7052V32.4109L49.976 29.3651V23.8179Z" fill="white"/>
<path d="M49.976 16.3251L41.6819 21.3936V26.2344L49.976 22.3471V16.3251Z" fill="white"/>
<path d="M64.3396 41.2702L76.6827 39.7415V31.2682L64.3396 34.2329V41.2702Z" fill="white"/>
<path d="M64.3396 32.8625L76.6827 29.9017V20.9806L64.3396 25.5126V32.8625Z" fill="white"/>
<path d="M62.9903 16.244V8.36905L51.3259 15.499V21.714L62.9903 16.244Z" fill="white"/>
<path d="M64.3396 50.5233H76.6827V41.0811L64.3396 42.6059V50.5233Z" fill="white"/>
<path d="M49.976 30.7857L41.6819 33.8276V38.3055L49.976 36.3136V30.7857Z" fill="white"/>
<path d="M51.3259 35.9893L62.9903 33.1868V26.0067L51.3259 30.2877V35.9893Z" fill="white"/>
<path d="M51.3259 44.2195V50.5233H62.9903V42.7758L51.3259 44.2195Z" fill="white"/>
<path d="M41.6819 45.4123V50.5233H49.976V44.3854L41.6819 45.4123Z" fill="white"/>
<path d="M91.0073 25.5434L78.5073 21.2122V29.9171L91.0073 32.8741V25.5434Z" fill="#19CDA2"/>
<path d="M92.3569 24.6054L103.189 28.3576V22.71L92.3569 17.7109V24.6054Z" fill="#19CDA2"/>
<path d="M91.0073 34.2406L78.5073 31.2837V39.7299L91.0073 41.2393V34.2406Z" fill="#19CDA2"/>
<path d="M91.0073 7.63948L78.5073 0V9.85528L91.0073 15.6225V7.63948Z" fill="#19CDA2"/>
<path d="M103.189 21.2431V15.0898L92.3569 8.46558V16.244L103.189 21.2431Z" fill="#19CDA2"/>
<path d="M91.0073 17.0894L78.5073 11.3222V19.8032L91.0073 24.1383V17.0894Z" fill="#19CDA2"/>
<path d="M92.3569 41.4014L103.189 42.71V37.1204L92.3569 34.5571V41.4014Z" fill="#19CDA2"/>
<path d="M78.5073 41.0656V50.5233H91.0073V42.5788L78.5073 41.0656Z" fill="#19CDA2"/>
<path d="M92.3569 26.0106V33.1945L103.189 35.7539V29.7666L92.3569 26.0106Z" fill="#19CDA2"/>
<path d="M92.3569 50.5233H103.189V44.0496L92.3569 42.741V50.5233Z" fill="#19CDA2"/>
</svg>
