<svg width="233" height="54" viewBox="0 0 233 54" fill="none" xmlns="http://www.w3.org/2000/svg">
<path d="M82.3382 53.6344C81.77 53.6344 81.2479 53.54 80.7719 53.3511C80.2958 53.1623 79.885 52.879 79.5357 52.5012C79.1902 52.1235 78.9214 51.6551 78.7295 51.0923C78.5375 50.5295 78.4415 49.8836 78.4415 49.1545C78.4415 48.4255 78.5337 47.7947 78.7179 47.2583C78.9022 46.7182 79.171 46.2498 79.528 45.8494C79.8735 45.4603 80.2843 45.1657 80.7604 44.9617C81.2364 44.7578 81.7662 44.6558 82.3536 44.6558C82.6453 44.6558 82.9179 44.6784 83.1751 44.72C83.4285 44.7615 83.6666 44.8182 83.8854 44.8824C84.0735 44.9391 84.2655 45.0146 84.4612 45.1015C84.657 45.1884 84.8528 45.2866 85.0409 45.3886V46.7786H84.9488C84.849 46.6842 84.7185 46.5746 84.5572 46.4424C84.396 46.3102 84.204 46.1818 83.9737 46.0534C83.751 45.9325 83.5091 45.8343 83.2481 45.755C82.987 45.6756 82.6837 45.6379 82.3421 45.6379C81.9735 45.6379 81.6203 45.7134 81.2901 45.8645C80.96 46.0156 80.6682 46.2385 80.4187 46.5331C80.173 46.8277 79.9848 47.1979 79.8466 47.6436C79.7084 48.0893 79.6432 48.5917 79.6432 49.1508C79.6432 49.7438 79.7161 50.2575 79.8582 50.6844C80.004 51.115 80.1998 51.4738 80.4494 51.7684C80.6912 52.0555 80.9753 52.2708 81.3017 52.4181C81.628 52.5655 81.9735 52.6372 82.3421 52.6372C82.6761 52.6372 82.987 52.5957 83.2711 52.5164C83.5552 52.4333 83.8086 52.3313 84.0313 52.2066C84.2463 52.0857 84.4305 51.9649 84.5841 51.8364C84.7415 51.7118 84.8605 51.6022 84.9527 51.5116H85.0409V52.8865C84.849 52.9772 84.6686 53.0603 84.4996 53.1434C84.3307 53.2265 84.1234 53.3058 83.8854 53.3814C83.632 53.4645 83.3978 53.5249 83.1828 53.5664C82.9678 53.608 82.6876 53.6307 82.3382 53.6307V53.6344Z" fill="#FBFAF2"/>
<path d="M88.1504 53.4796V45.8381H85.2327V44.8145H92.2275V45.8381H89.3098V53.4796H88.1542H88.1504Z" fill="#FBFAF2"/>
<path d="M98.5893 47.4244C98.5893 47.8022 98.524 48.1572 98.3897 48.4934C98.2553 48.8296 98.071 49.1167 97.833 49.3509C97.5335 49.6455 97.1803 49.8684 96.7772 50.0195C96.3741 50.1706 95.8597 50.2461 95.2416 50.2461H94.2626V53.4757H93.1071V44.8105H95.2915C95.8059 44.8105 96.2436 44.8521 96.6045 44.939C96.9654 45.0259 97.284 45.1618 97.5604 45.3507C97.8829 45.5736 98.1363 45.8531 98.3206 46.193C98.5048 46.533 98.5931 46.9447 98.5931 47.4244H98.5893ZM97.3877 47.4547C97.3877 47.1563 97.3377 46.8956 97.2341 46.6728C97.1304 46.4537 96.973 46.2724 96.7657 46.1326C96.5814 46.0117 96.3703 45.9286 96.1246 45.8757C95.8827 45.8266 95.5794 45.8002 95.2186 45.8002H94.2626V49.264H95.0496C95.518 49.264 95.8942 49.2262 96.1822 49.1507C96.4701 49.0751 96.7081 48.9392 96.9001 48.7465C97.0728 48.5728 97.1957 48.3801 97.2725 48.1761C97.3493 47.9722 97.3877 47.7304 97.3877 47.4547Z" fill="#FBFAF2"/>
<path d="M105.841 45.808C106.171 46.1896 106.429 46.6617 106.613 47.2208C106.797 47.7836 106.886 48.4257 106.886 49.1472C106.886 49.8687 106.797 50.4844 106.617 51.051C106.436 51.6176 106.179 52.0935 105.841 52.4788C105.488 52.883 105.073 53.1814 104.601 53.374C104.129 53.5667 103.607 53.6611 103.039 53.6611C102.471 53.6611 101.922 53.5629 101.449 53.3627C100.977 53.1663 100.574 52.8716 100.236 52.4788C99.9022 52.0935 99.645 51.6213 99.4645 51.0585C99.2841 50.4957 99.1958 49.8611 99.1958 49.151C99.1958 48.4408 99.2879 47.7798 99.4684 47.2283C99.6488 46.6768 99.906 46.2047 100.24 45.808C100.574 45.4228 100.977 45.1319 101.449 44.9317C101.922 44.7315 102.451 44.6333 103.035 44.6333C103.618 44.6333 104.16 44.7353 104.636 44.943C105.112 45.147 105.511 45.4379 105.837 45.8118L105.841 45.808ZM105.684 49.1472C105.684 48.573 105.622 48.0631 105.496 47.6212C105.373 47.1792 105.196 46.8128 104.97 46.522C104.739 46.2235 104.463 46.0007 104.137 45.8496C103.81 45.6985 103.446 45.6267 103.043 45.6267C102.639 45.6267 102.256 45.6985 101.941 45.8458C101.626 45.9931 101.35 46.216 101.108 46.5257C100.877 46.8204 100.701 47.1905 100.578 47.6363C100.455 48.082 100.394 48.5881 100.394 49.151C100.394 50.2879 100.632 51.1567 101.112 51.7611C101.591 52.3655 102.233 52.6676 103.039 52.6676C103.845 52.6676 104.486 52.3655 104.962 51.7611C105.438 51.1567 105.676 50.2879 105.676 49.151L105.684 49.1472Z" fill="#FBFAF2"/>
<path d="M114.399 53.4796H113.247V46.6011L109.32 53.4796H108.153V44.8145H109.304V51.5834L113.182 44.8145H114.403V53.4796H114.399Z" fill="#FBFAF2"/>
<path d="M118.192 53.4796V45.8381H115.274V44.8145H122.269V45.8381H119.351V53.4796H118.195H118.192Z" fill="#FBFAF2"/>
<path d="M123.145 53.4796V44.8145H128.581V45.8381H124.3V48.214H128.289V49.2377H124.3V52.456H128.581V53.4796H123.145Z" fill="#FBFAF2"/>
<path d="M136.189 53.4796H135.033V45.8381H132.104C132.093 46.2763 132.077 46.7031 132.058 47.1224C132.039 47.5417 132.023 47.9119 132.012 48.2443C131.981 49.064 131.931 49.7401 131.862 50.2765C131.793 50.8129 131.705 51.2586 131.597 51.6212C131.494 51.9725 131.367 52.2596 131.225 52.4787C131.083 52.6977 130.929 52.879 130.76 53.0264C130.584 53.185 130.396 53.3059 130.196 53.3852C129.996 53.4645 129.762 53.5061 129.497 53.5061C129.417 53.5061 129.332 53.5061 129.248 53.4985C129.163 53.491 129.098 53.491 129.052 53.491V52.3729H129.133C129.171 52.3767 129.206 52.3804 129.232 52.3842C129.259 52.388 129.302 52.3918 129.355 52.3918C129.493 52.3918 129.624 52.3691 129.747 52.3276C129.866 52.286 129.97 52.218 130.058 52.1311C130.323 51.8705 130.515 51.4097 130.638 50.7449C130.76 50.0801 130.845 49.1848 130.899 48.0592C130.918 47.6777 130.937 47.1753 130.956 46.552C130.975 45.9288 130.995 45.3546 131.01 44.8296H136.189V53.4947V53.4796Z" fill="#FBFAF2"/>
<path d="M143.814 50.7938C143.814 51.2131 143.733 51.5946 143.568 51.9346C143.403 52.2745 143.184 52.554 142.908 52.7656C142.582 53.0224 142.232 53.2037 141.856 53.3133C141.48 53.4228 141 53.4757 140.409 53.4757H137.952V44.8105H139.107V48.2101H140.443C141.035 48.2101 141.518 48.2441 141.891 48.3121C142.263 48.3801 142.616 48.5425 142.946 48.7994C143.242 49.0298 143.461 49.3131 143.599 49.6493C143.737 49.9855 143.81 50.3708 143.81 50.7976L143.814 50.7938ZM142.605 50.8165C142.605 50.5256 142.559 50.2688 142.463 50.0497C142.367 49.8306 142.217 49.6493 142.01 49.5133C141.795 49.3698 141.549 49.2829 141.269 49.2527C140.989 49.2225 140.593 49.2073 140.082 49.2073H139.107V52.4974H140.052C140.57 52.4974 140.965 52.4709 141.246 52.4218C141.522 52.3727 141.768 52.2745 141.979 52.131C142.198 51.9799 142.355 51.8024 142.455 51.5984C142.555 51.3944 142.605 51.1338 142.605 50.8203V50.8165Z" fill="#FBFAF2"/>
<path d="M151.231 53.4796H150.076V49.2377H146.075V53.4796H144.92V44.8145H146.075V48.214H150.076V44.8145H151.231V53.4796Z" fill="#FBFAF2"/>
<path d="M152.053 53.4796L154.982 44.8145H156.406L159.336 53.4796H158.115L157.328 51.0584H154.007L153.22 53.4796H152.053ZM157.009 50.0763L155.665 45.9892L154.329 50.0763H157.009Z" fill="#FBFAF2"/>
<path d="M165.708 53.4795H164.553V50.0346H163.24L160.641 53.4795H159.251L162.042 49.8608C161.459 49.6644 161.006 49.3584 160.683 48.9429C160.361 48.5274 160.203 47.9759 160.203 47.2809C160.203 46.839 160.295 46.4575 160.48 46.1364C160.664 45.8153 160.91 45.5509 161.213 45.3356C161.489 45.143 161.812 45.007 162.18 44.9276C162.549 44.8521 162.96 44.8105 163.405 44.8105H165.705V53.4757L165.708 53.4795ZM164.553 49.0714V45.8002H163.351C163.017 45.8002 162.749 45.8229 162.545 45.8644C162.342 45.906 162.157 45.9853 161.992 46.0986C161.812 46.2195 161.674 46.3895 161.574 46.6048C161.474 46.8239 161.42 47.0618 161.42 47.3225C161.42 47.6322 161.455 47.8891 161.528 48.0968C161.601 48.3046 161.716 48.4859 161.873 48.6445C162.05 48.8145 162.261 48.9316 162.514 48.9883C162.768 49.0449 163.059 49.0751 163.397 49.0751H164.553V49.0714Z" fill="#FBFAF2"/>
<path d="M177.633 53.4796H176.162L173.091 49.5097H172.362V53.4796H171.206V44.8145H172.362V48.7202C172.818 48.7051 173.179 48.5918 173.444 48.3765C173.709 48.1649 173.928 47.8552 174.097 47.4586C174.166 47.2848 174.231 47.1186 174.285 46.96C174.343 46.8013 174.389 46.6691 174.423 46.5596C174.657 45.8948 174.953 45.4377 175.318 45.1884C175.679 44.9391 176.182 44.8145 176.823 44.8145H177.18V45.8457H176.888C176.412 45.8457 176.082 45.9363 175.89 46.1214C175.698 46.3065 175.525 46.654 175.364 47.1677C175.203 47.6814 175.026 48.0554 174.826 48.2934C174.627 48.5313 174.389 48.7429 174.108 48.9242L177.633 53.4834V53.4796Z" fill="#FBFAF2"/>
<path d="M184.558 45.808C184.888 46.1896 185.146 46.6617 185.33 47.2208C185.514 47.7836 185.606 48.4257 185.606 49.1472C185.606 49.8687 185.518 50.4844 185.337 51.051C185.157 51.6176 184.9 52.0935 184.562 52.4788C184.209 52.883 183.794 53.1814 183.322 53.374C182.85 53.5667 182.328 53.6611 181.759 53.6611C181.191 53.6611 180.642 53.5629 180.17 53.3627C179.698 53.1663 179.295 52.8716 178.957 52.4788C178.623 52.0935 178.366 51.6213 178.185 51.0585C178.005 50.4957 177.917 49.8611 177.917 49.151C177.917 48.4408 178.009 47.7798 178.189 47.2283C178.37 46.6768 178.627 46.2047 178.961 45.808C179.295 45.4228 179.698 45.1319 180.174 44.9317C180.646 44.7315 181.176 44.6333 181.759 44.6333C182.343 44.6333 182.884 44.7353 183.36 44.943C183.836 45.147 184.236 45.4379 184.562 45.8118L184.558 45.808ZM184.401 49.1472C184.401 48.573 184.339 48.0631 184.213 47.6212C184.09 47.1792 183.913 46.8128 183.687 46.522C183.456 46.2235 183.18 46.0007 182.854 45.8496C182.527 45.6985 182.163 45.6267 181.759 45.6267C181.356 45.6267 180.972 45.6985 180.658 45.8458C180.343 45.9931 180.066 46.216 179.825 46.5257C179.594 46.8204 179.418 47.1905 179.295 47.6363C179.172 48.082 179.11 48.5881 179.11 49.151C179.11 50.2879 179.348 51.1567 179.828 51.7611C180.308 52.3655 180.949 52.6676 181.756 52.6676C182.562 52.6676 183.203 52.3655 183.679 51.7611C184.155 51.1567 184.393 50.2879 184.393 49.151L184.401 49.1472Z" fill="#FBFAF2"/>
<path d="M194.317 53.4796H193.162V46.0119L190.896 51.0923H190.198L187.952 46.0119V53.4796H186.873V44.8145H188.451L190.624 49.6381L192.72 44.8145H194.325V53.4796H194.317Z" fill="#FBFAF2"/>
<path d="M202.391 53.4796H201.235V45.8381H197.235V53.4796H196.079V44.8145H202.391V53.4796Z" fill="#FBFAF2"/>
<path d="M203.216 53.4796L206.145 44.8145H207.57L210.499 53.4796H209.278L208.491 51.0584H205.17L204.383 53.4796H203.216ZM208.172 50.0763L206.829 45.9892L205.493 50.0763H208.172Z" fill="#FBFAF2"/>
<path d="M217.632 53.4796H216.477V49.2377H212.476V53.4796H211.321V44.8145H212.476V48.214H216.477V44.8145H217.632V53.4796Z" fill="#FBFAF2"/>
<path d="M225.645 53.4796H224.493V46.6011L220.566 53.4796H219.399V44.8145H220.55V51.5834L224.428 44.8145H225.649V53.4796H225.645Z" fill="#FBFAF2"/>
<path d="M232.955 53.4795H231.799V50.0346H230.486L227.887 53.4795H226.497L229.288 49.8608C228.705 49.6644 228.252 49.3584 227.929 48.9429C227.607 48.5312 227.449 47.9759 227.449 47.2809C227.449 46.839 227.541 46.4575 227.726 46.1364C227.91 45.8153 228.156 45.5509 228.459 45.3356C228.735 45.143 229.058 45.007 229.43 44.9276C229.799 44.8521 230.21 44.8105 230.655 44.8105H232.955V53.4757V53.4795ZM231.799 49.0714V45.8002H230.597C230.263 45.8002 229.995 45.8229 229.791 45.8644C229.588 45.906 229.403 45.9853 229.238 46.0986C229.058 46.2195 228.92 46.3895 228.82 46.6048C228.72 46.8239 228.666 47.0618 228.666 47.3225C228.666 47.6322 228.701 47.8891 228.774 48.0968C228.847 48.3046 228.962 48.4859 229.123 48.6445C229.3 48.8145 229.511 48.9316 229.764 48.9883C230.018 49.0449 230.309 49.0751 230.647 49.0751H231.803L231.799 49.0714Z" fill="#FBFAF2"/>
<path d="M92.4086 34.314H89.8518V17.6296H81.0026V34.314H78.4458V15.3896H92.4086V34.314Z" fill="#19CDA2"/>
<path d="M108.579 34.3134H106.022V26.789H103.116L97.3685 34.3134H94.2933L100.467 26.4075C99.1767 25.9768 98.1747 25.3083 97.4644 24.4055C96.7542 23.5027 96.3972 22.294 96.3972 20.7755C96.3972 19.8085 96.6006 18.9775 97.0114 18.2787C97.4222 17.5799 97.9597 16.9982 98.6315 16.5298C99.2419 16.1067 99.956 15.8083 100.774 15.6383C101.591 15.4684 102.498 15.3853 103.488 15.3853H108.579V34.3096V34.3134ZM106.022 24.6926V17.5497H103.361C102.62 17.5497 102.025 17.595 101.58 17.6894C101.131 17.7838 100.724 17.9538 100.351 18.1994C99.956 18.4638 99.645 18.8302 99.4224 19.3061C99.1997 19.782 99.0884 20.3033 99.0884 20.8699C99.0884 21.5461 99.169 22.1127 99.3264 22.5584C99.4838 23.0079 99.741 23.4045 100.094 23.752C100.482 24.126 100.954 24.3753 101.515 24.5037C102.075 24.6321 102.724 24.6926 103.465 24.6926H106.022Z" fill="#19CDA2"/>
<path d="M116.975 34.3136V17.6292H110.517V15.3931H125.993V17.6292H119.535V34.3136H116.979H116.975Z" fill="#19CDA2"/>
<path d="M140.609 28.4548C140.609 29.3689 140.428 30.1999 140.067 30.944C139.707 31.6881 139.219 32.2963 138.609 32.7609C137.887 33.3199 137.111 33.7166 136.282 33.9545C135.453 34.1925 134.389 34.3096 133.08 34.3096H127.928V15.3853H130.485V22.8077H133.157C134.466 22.8077 135.533 22.8832 136.359 23.0305C137.184 23.1779 137.964 23.5329 138.697 24.092C139.35 24.5906 139.833 25.21 140.144 25.9466C140.455 26.6832 140.609 27.518 140.609 28.451V28.4548ZM137.937 28.5039C137.937 27.8693 137.829 27.3102 137.622 26.8267C137.411 26.3432 137.077 25.9542 136.62 25.6558C136.148 25.3423 135.599 25.1534 134.981 25.0854C134.363 25.0174 133.487 24.9834 132.359 24.9834H130.485V32.1641H132.293C133.437 32.1641 134.32 32.1074 134.935 31.9979C135.549 31.8883 136.09 31.6768 136.555 31.3633C137.038 31.0347 137.388 30.6456 137.607 30.1999C137.825 29.7542 137.937 29.1913 137.937 28.5039ZM144.886 34.3134H142.329V15.389H144.886V34.3134Z" fill="#19CDA2"/>
<path d="M162.606 34.3135H160.061V19.2911L151.369 34.3135H148.786V15.3891H151.331V30.1698L159.907 15.3891H162.606V34.3135ZM160.721 9.72314C160.687 10.9923 160.276 12.0198 159.493 12.7979C158.71 13.576 157.523 13.9688 155.942 13.9688C154.36 13.9688 153.174 13.5798 152.39 12.7979C151.607 12.016 151.196 10.9923 151.162 9.72314H153.462C153.477 10.6713 153.696 11.3549 154.107 11.7742C154.517 12.1935 155.132 12.405 155.942 12.405C156.752 12.405 157.374 12.1973 157.781 11.7818C158.187 11.3663 158.402 10.6788 158.422 9.72314H160.721Z" fill="#19CDA2"/>
<path d="M184.754 15.3934L177.779 31.3299C177.487 31.9985 177.157 32.5387 176.792 32.9428C176.427 33.3508 176.043 33.653 175.648 33.8569C175.253 34.0685 174.861 34.2082 174.477 34.2762C174.093 34.3442 173.709 34.3782 173.322 34.3782C172.976 34.3782 172.573 34.3707 172.108 34.3518C171.644 34.3329 171.348 34.3215 171.218 34.314V31.9645H171.398C171.529 31.9796 171.724 32.0023 171.986 32.0212C172.247 32.0438 172.581 32.0514 172.988 32.0514C173.176 32.0514 173.402 32.04 173.659 32.0212C173.917 31.9985 174.155 31.9381 174.37 31.8361C174.619 31.719 174.853 31.5603 175.072 31.3601C175.291 31.1599 175.491 30.8464 175.671 30.412L176.109 29.4073L169.352 15.3896H172.181L177.399 26.5214L182.113 15.3896H184.747L184.754 15.3934Z" fill="#FBFAF2"/>
<path d="M197.942 17.6296H189.093V34.314H186.536V15.3896H197.942V17.6258V17.6296Z" fill="#FBFAF2"/>
<path d="M213.559 17.5648C214.293 18.3958 214.861 19.4232 215.264 20.6546C215.667 21.8823 215.87 23.2837 215.87 24.8626C215.87 26.4415 215.671 27.7824 215.275 29.0176C214.88 30.2528 214.308 31.2916 213.555 32.1301C212.772 33.0102 211.859 33.6599 210.81 34.0792C209.766 34.4985 208.614 34.71 207.355 34.71C206.096 34.71 204.883 34.4947 203.842 34.0603C202.802 33.6297 201.904 32.9838 201.155 32.1301C200.414 31.2916 199.846 30.2566 199.451 29.0289C199.055 27.8013 198.855 26.4113 198.855 24.8588C198.855 23.3063 199.055 21.8672 199.454 20.666C199.854 19.461 200.426 18.4298 201.167 17.5648C201.908 16.7262 202.798 16.0879 203.846 15.6535C204.894 15.2191 206.061 15 207.355 15C208.649 15 209.843 15.2229 210.895 15.6724C211.947 16.1219 212.834 16.7527 213.555 17.5648H213.559ZM213.21 24.8588C213.21 23.6047 213.072 22.4942 212.795 21.531C212.519 20.564 212.131 19.7632 211.632 19.1286C211.125 18.4751 210.511 17.9879 209.789 17.6592C209.071 17.3344 208.265 17.1682 207.367 17.1682C206.468 17.1682 205.624 17.3268 204.933 17.6441C204.238 17.9614 203.627 18.4562 203.09 19.1248C202.583 19.767 202.192 20.5791 201.923 21.5536C201.65 22.5282 201.516 23.6312 201.516 24.8588C201.516 27.3405 202.046 29.2405 203.105 30.5588C204.165 31.877 205.585 32.5343 207.367 32.5343C209.148 32.5343 210.569 31.877 211.624 30.5588C212.68 29.2405 213.206 27.3405 213.206 24.8588H213.21Z" fill="#FBFAF2"/>
<path d="M232.7 34.3133H230.144V17.6289H223.659C223.632 18.5883 223.598 19.5213 223.556 20.4316C223.513 21.342 223.479 22.1579 223.452 22.8793C223.383 24.666 223.272 26.1467 223.122 27.3139C222.972 28.4811 222.776 29.4632 222.534 30.2489C222.3 31.0195 222.028 31.6427 221.713 32.1187C221.398 32.5946 221.056 32.9912 220.688 33.3123C220.3 33.6598 219.886 33.9204 219.44 34.0942C218.995 34.268 218.48 34.3548 217.897 34.3548C217.716 34.3548 217.532 34.3473 217.348 34.3359C217.164 34.3246 217.018 34.3171 216.914 34.3171V31.8769H217.094C217.179 31.8845 217.252 31.8958 217.313 31.9034C217.375 31.9109 217.463 31.9147 217.586 31.9147C217.897 31.9147 218.185 31.8694 218.454 31.7749C218.718 31.6805 218.949 31.537 219.137 31.3443C219.724 30.7777 220.15 29.7654 220.423 28.3149C220.696 26.8606 220.884 24.9078 220.999 22.4487C221.041 21.6177 221.083 20.5223 221.129 19.1587C221.172 17.7951 221.21 16.541 221.245 15.3965H232.7V34.3208V34.3133Z" fill="#FBFAF2"/>
<path d="M37.4095 10.5004V0L24.217 8.06202V16.6852L37.4095 10.5004Z" fill="#FBFAF2"/>
<path d="M8.86485 25.4565L0 29.6113V34.6408L8.86485 31.3855V25.4565Z" fill="#FBFAF2"/>
<path d="M8.86485 17.4482L0 22.8656V28.0394L8.86485 23.8847V17.4482Z" fill="#FBFAF2"/>
<path d="M24.217 44.1097L37.4095 42.4758V33.4194L24.217 36.5881V44.1097Z" fill="#FBFAF2"/>
<path d="M24.217 35.1239L37.4095 31.9593V22.4243L24.217 27.2681V35.1239Z" fill="#FBFAF2"/>
<path d="M22.7745 17.3617V8.94482L10.3075 16.5654V23.2081L22.7745 17.3617Z" fill="#FBFAF2"/>
<path d="M24.217 53.9997H37.4095V43.9077L24.217 45.5375V53.9997Z" fill="#FBFAF2"/>
<path d="M8.86485 32.9043L0 36.1555V40.9416L8.86485 38.8126V32.9043Z" fill="#FBFAF2"/>
<path d="M10.3075 38.466L22.7745 35.4706V27.7964L10.3075 32.372V38.466Z" fill="#FBFAF2"/>
<path d="M10.3075 47.2623V53.9999H22.7745V45.7192L10.3075 47.2623Z" fill="#FBFAF2"/>
<path d="M0 48.5374V54.0001H8.86485V47.4399L0 48.5374Z" fill="#FBFAF2"/>
<path d="M52.7197 27.3007L39.3595 22.6714V31.9753L52.7197 35.1358V27.3007Z" fill="#19CDA2"/>
<path d="M54.1622 26.2986L65.7402 30.3089V24.2727L54.1622 18.9297V26.2986Z" fill="#19CDA2"/>
<path d="M52.7197 36.5965L39.3595 33.436V42.4635L52.7197 44.0768V36.5965Z" fill="#19CDA2"/>
<path d="M52.7197 8.16517L39.3595 0V10.5334L52.7197 16.6975V8.16517Z" fill="#19CDA2"/>
<path d="M65.7402 22.7046V16.1279L54.1622 9.04785V17.3616L65.7402 22.7046Z" fill="#19CDA2"/>
<path d="M52.7197 18.2652L39.3595 12.1011V21.1657L52.7197 25.7991V18.2652Z" fill="#19CDA2"/>
<path d="M54.1622 44.2503L65.7402 45.649V39.6747L54.1622 36.9351V44.2503Z" fill="#19CDA2"/>
<path d="M39.3595 43.8916V54.0001H52.7197V45.509L39.3595 43.8916Z" fill="#19CDA2"/>
<path d="M54.1622 27.7998V35.4781L65.7402 38.2136V31.8143L54.1622 27.7998Z" fill="#19CDA2"/>
<path d="M54.1622 54H65.7402V47.0808L54.1622 45.6821V54Z" fill="#19CDA2"/>
</svg>
