<svg width="173" height="40" viewBox="0 0 173 40" fill="none" xmlns="http://www.w3.org/2000/svg">
<path d="M60.9915 39.729C60.5707 39.729 60.1839 39.6591 59.8313 39.5192C59.4787 39.3793 59.1744 39.1694 58.9156 38.8896C58.6596 38.6098 58.4606 38.2629 58.3184 37.846C58.1762 37.4291 58.1051 36.9506 58.1051 36.4106C58.1051 35.8706 58.1734 35.4033 58.3099 35.006C58.4464 34.6059 58.6454 34.2589 58.9099 33.9623C59.1658 33.6741 59.4701 33.4559 59.8228 33.3048C60.1754 33.1537 60.5678 33.0782 61.0029 33.0782C61.219 33.0782 61.421 33.0949 61.6115 33.1257C61.7992 33.1565 61.9755 33.1985 62.1376 33.246C62.2769 33.288 62.4191 33.344 62.5642 33.4083C62.7092 33.4727 62.8542 33.5454 62.9936 33.621V34.6506H62.9253C62.8514 34.5807 62.7547 34.4995 62.6353 34.4016C62.5158 34.3037 62.3736 34.2086 62.203 34.1134C62.0381 34.0239 61.8589 33.9511 61.6655 33.8924C61.4721 33.8336 61.2475 33.8056 60.9944 33.8056C60.7214 33.8056 60.4598 33.8616 60.2152 33.9735C59.9706 34.0854 59.7545 34.2505 59.5697 34.4688C59.3877 34.687 59.2483 34.9612 59.1459 35.2914C59.0436 35.6216 58.9952 35.9937 58.9952 36.4078C58.9952 36.8471 59.0492 37.2276 59.1545 37.5438C59.2625 37.8628 59.4076 38.1286 59.5924 38.3468C59.7716 38.5595 59.982 38.719 60.2237 38.8281C60.4654 38.9372 60.7214 38.9904 60.9944 38.9904C61.2418 38.9904 61.4721 38.9596 61.6826 38.9008C61.893 38.8393 62.0807 38.7637 62.2457 38.6714C62.4049 38.5819 62.5414 38.4923 62.6552 38.3972C62.7718 38.3049 62.8599 38.2237 62.9282 38.1566H62.9936V39.175C62.8514 39.2422 62.7177 39.3037 62.5926 39.3653C62.4675 39.4269 62.3139 39.4856 62.1376 39.5416C61.9499 39.6031 61.7764 39.6479 61.6172 39.6787C61.4579 39.7095 61.2503 39.7262 60.9915 39.7262V39.729Z" fill="white"/>
<path d="M65.2969 39.6143V33.9539H63.1356V33.1957H68.317V33.9539H66.1557V39.6143H65.2997H65.2969Z" fill="white"/>
<path d="M73.0292 35.1291C73.0292 35.4089 72.9808 35.6719 72.8813 35.9209C72.7818 36.17 72.6453 36.3826 72.469 36.5561C72.2471 36.7743 71.9855 36.9394 71.6869 37.0513C71.3883 37.1633 71.0073 37.2192 70.5494 37.2192H69.8242V39.6115H68.9683V33.1929H70.5864C70.9674 33.1929 71.2916 33.2236 71.559 33.288C71.8263 33.3524 72.0623 33.4531 72.2671 33.593C72.5059 33.7581 72.6936 33.9651 72.8301 34.2169C72.9666 34.4688 73.032 34.7737 73.032 35.1291H73.0292ZM72.1391 35.1515C72.1391 34.9304 72.1021 34.7374 72.0253 34.5723C71.9485 34.41 71.832 34.2757 71.6784 34.1722C71.5419 34.0826 71.3855 34.0211 71.2035 33.9819C71.0243 33.9455 70.7997 33.926 70.5323 33.926H69.8242V36.4917H70.4072C70.7542 36.4917 71.0328 36.4638 71.2461 36.4078C71.4594 36.3518 71.6357 36.2511 71.7779 36.1084C71.9059 35.9797 71.9969 35.837 72.0538 35.6859C72.1106 35.5348 72.1391 35.3557 72.1391 35.1515Z" fill="white"/>
<path d="M78.4015 33.9316C78.646 34.2142 78.8366 34.5639 78.9731 34.978C79.1096 35.3949 79.175 35.8706 79.175 36.405C79.175 36.9394 79.1096 37.3955 78.9759 37.8152C78.8423 38.2349 78.6517 38.5875 78.4015 38.8728C78.1398 39.1722 77.8327 39.3933 77.4829 39.536C77.1331 39.6787 76.7464 39.7486 76.3255 39.7486C75.9046 39.7486 75.498 39.6759 75.1482 39.5276C74.7984 39.3821 74.4998 39.1638 74.2495 38.8728C74.0021 38.5875 73.8116 38.2377 73.6779 37.8208C73.5443 37.4039 73.4789 36.9338 73.4789 36.4078C73.4789 35.8818 73.5471 35.3921 73.6808 34.9836C73.8144 34.5751 74.005 34.2253 74.2524 33.9316C74.4998 33.6462 74.7984 33.4307 75.1482 33.2824C75.498 33.1341 75.8904 33.0614 76.3227 33.0614C76.7549 33.0614 77.1559 33.1369 77.5085 33.2908C77.8612 33.4419 78.1569 33.6573 78.3986 33.9344L78.4015 33.9316ZM78.2849 36.405C78.2849 35.9797 78.2394 35.602 78.1455 35.2746C78.0545 34.9472 77.9237 34.6758 77.7559 34.4604C77.5853 34.2393 77.3806 34.0743 77.1388 33.9623C76.8971 33.8504 76.627 33.7972 76.3284 33.7972C76.0298 33.7972 75.7454 33.8504 75.5122 33.9595C75.279 34.0687 75.0742 34.2337 74.8951 34.4632C74.7245 34.6814 74.5936 34.9556 74.5026 35.2858C74.4116 35.616 74.3661 35.9909 74.3661 36.4078C74.3661 37.25 74.5425 37.8935 74.8979 38.3412C75.2534 38.7889 75.7283 39.0127 76.3255 39.0127C76.9227 39.0127 77.3976 38.7889 77.7502 38.3412C78.1029 37.8935 78.2792 37.25 78.2792 36.4078L78.2849 36.405Z" fill="white"/>
<path d="M84.74 39.6143H83.8869V34.5191L80.9777 39.6143H80.1132V33.1957H80.9663V38.2097L83.8385 33.1957H84.7428V39.6143H84.74Z" fill="white"/>
<path d="M87.5495 39.6143V33.9539H85.3882V33.1957H90.5696V33.9539H88.4083V39.6143H87.5523H87.5495Z" fill="white"/>
<path d="M91.2181 39.6143V33.1957H95.2449V33.9539H92.0741V35.7139H95.0288V36.4722H92.0741V38.8561H95.2449V39.6143H91.2181Z" fill="white"/>
<path d="M100.881 39.6143H100.025V33.9539H97.8554C97.8469 34.2785 97.8355 34.5947 97.8213 34.9053C97.8071 35.2159 97.7957 35.4901 97.7872 35.7363C97.7644 36.3435 97.7274 36.8443 97.6762 37.2416C97.6251 37.6389 97.5597 37.9691 97.48 38.2377C97.4032 38.4979 97.3094 38.7106 97.2042 38.8729C97.099 39.0351 96.9852 39.1694 96.8601 39.2786C96.7293 39.3961 96.5899 39.4856 96.442 39.5444C96.2942 39.6031 96.1207 39.6339 95.9245 39.6339C95.8648 39.6339 95.8022 39.6339 95.7396 39.6283C95.6771 39.6227 95.6287 39.6227 95.5946 39.6227V38.7945H95.6543C95.6828 38.7973 95.7084 38.8001 95.7283 38.8029C95.7482 38.8057 95.7794 38.8085 95.8193 38.8085C95.9216 38.8085 96.0183 38.7917 96.1093 38.7609C96.1975 38.7302 96.2743 38.6798 96.3397 38.6154C96.5359 38.4224 96.6781 38.081 96.7691 37.5886C96.8601 37.0961 96.9227 36.433 96.9625 35.5992C96.9767 35.3166 96.9909 34.9444 97.0051 34.4828C97.0193 34.0211 97.0336 33.5958 97.0449 33.2069H100.881V39.6255V39.6143Z" fill="white"/>
<path d="M106.529 37.6249C106.529 37.9355 106.47 38.2181 106.347 38.4699C106.225 38.7218 106.063 38.9288 105.858 39.0855C105.616 39.2758 105.358 39.4101 105.079 39.4912C104.8 39.5723 104.445 39.6115 104.007 39.6115H102.187V33.1929H103.043V35.7111H104.032C104.47 35.7111 104.829 35.7363 105.104 35.7866C105.38 35.837 105.642 35.9573 105.887 36.1476C106.106 36.3183 106.268 36.5281 106.37 36.7771C106.472 37.0262 106.526 37.3116 106.526 37.6277L106.529 37.6249ZM105.633 37.6417C105.633 37.4263 105.599 37.236 105.528 37.0737C105.457 36.9114 105.346 36.7771 105.193 36.6764C105.033 36.5701 104.851 36.5057 104.644 36.4833C104.436 36.461 104.143 36.4498 103.765 36.4498H103.043V38.8868H103.742C104.126 38.8868 104.419 38.8672 104.627 38.8309C104.831 38.7945 105.013 38.7218 105.17 38.6154C105.332 38.5035 105.449 38.372 105.523 38.2209C105.596 38.0698 105.633 37.8767 105.633 37.6445V37.6417Z" fill="white"/>
<path d="M112.023 39.6143H111.167V36.4722H108.204V39.6143H107.348V33.1957H108.204V35.7139H111.167V33.1957H112.023V39.6143Z" fill="white"/>
<path d="M112.632 39.6143L114.802 33.1957H115.857L118.026 39.6143H117.122L116.539 37.8208H114.079L113.496 39.6143H112.632ZM116.303 37.0933L115.308 34.0659L114.318 37.0933H116.303Z" fill="white"/>
<path d="M122.747 39.6143H121.891V37.0625H120.919L118.993 39.6143H117.964L120.031 36.9338C119.599 36.7883 119.263 36.5617 119.025 36.2539C118.786 35.9461 118.669 35.5376 118.669 35.0228C118.669 34.6954 118.737 34.4128 118.874 34.175C119.01 33.9371 119.192 33.7413 119.417 33.5818C119.622 33.4391 119.861 33.3384 120.134 33.2796C120.407 33.2236 120.711 33.1929 121.041 33.1929H122.744V39.6115L122.747 39.6143ZM121.891 36.349V33.926H121.001C120.754 33.926 120.555 33.9427 120.404 33.9735C120.253 34.0043 120.117 34.0631 119.994 34.147C119.861 34.2365 119.758 34.3624 119.684 34.5219C119.61 34.6842 119.571 34.8605 119.571 35.0536C119.571 35.283 119.596 35.4733 119.65 35.6271C119.704 35.781 119.79 35.9153 119.906 36.0329C120.037 36.1588 120.193 36.2455 120.381 36.2875C120.569 36.3294 120.785 36.3518 121.035 36.3518H121.891V36.349Z" fill="white"/>
<path d="M131.58 39.6143H130.491L128.216 36.6736H127.675V39.6143H126.819V33.1957H127.675V36.0888C128.014 36.0776 128.281 35.9937 128.477 35.8342C128.673 35.6775 128.836 35.4481 128.961 35.1543C129.012 35.0256 129.06 34.9025 129.1 34.785C129.143 34.6674 129.177 34.5695 129.202 34.4884C129.376 33.9959 129.595 33.6574 129.865 33.4727C130.132 33.288 130.505 33.1957 130.98 33.1957H131.244V33.9595H131.028C130.676 33.9595 130.431 34.0267 130.289 34.1638C130.147 34.3009 130.019 34.5583 129.899 34.9388C129.78 35.3194 129.649 35.5964 129.501 35.7727C129.353 35.9489 129.177 36.1056 128.969 36.2399L131.58 39.6171V39.6143Z" fill="white"/>
<path d="M136.71 33.9316C136.955 34.2142 137.145 34.5639 137.282 34.978C137.418 35.3949 137.486 35.8706 137.486 36.405C137.486 36.9394 137.421 37.3955 137.287 37.8152C137.154 38.2349 136.963 38.5875 136.713 38.8728C136.451 39.1722 136.144 39.3933 135.794 39.536C135.445 39.6787 135.058 39.7486 134.637 39.7486C134.216 39.7486 133.809 39.6759 133.46 39.5276C133.11 39.3821 132.811 39.1638 132.561 38.8728C132.314 38.5875 132.123 38.2377 131.989 37.8208C131.856 37.4039 131.79 36.9338 131.79 36.4078C131.79 35.8818 131.859 35.3921 131.992 34.9836C132.126 34.5751 132.316 34.2253 132.564 33.9316C132.811 33.6462 133.11 33.4307 133.462 33.2824C133.812 33.1341 134.205 33.0614 134.637 33.0614C135.069 33.0614 135.47 33.1369 135.823 33.2908C136.175 33.4419 136.471 33.6573 136.713 33.9344L136.71 33.9316ZM136.593 36.405C136.593 35.9797 136.548 35.602 136.454 35.2746C136.363 34.9472 136.232 34.6758 136.064 34.4604C135.894 34.2393 135.689 34.0743 135.447 33.9623C135.206 33.8504 134.936 33.7972 134.637 33.7972C134.338 33.7972 134.054 33.8504 133.821 33.9595C133.588 34.0687 133.383 34.2337 133.204 34.4632C133.033 34.6814 132.902 34.9556 132.811 35.2858C132.72 35.616 132.675 35.9909 132.675 36.4078C132.675 37.25 132.851 37.8935 133.206 38.3412C133.562 38.7889 134.037 39.0127 134.634 39.0127C135.231 39.0127 135.706 38.7889 136.059 38.3412C136.411 37.8935 136.588 37.25 136.588 36.4078L136.593 36.405Z" fill="white"/>
<path d="M143.939 39.6143H143.083V34.0826L141.405 37.846H140.888L139.224 34.0826V39.6143H138.425V33.1957H139.594L141.203 36.7687L142.756 33.1957H143.945V39.6143H143.939Z" fill="white"/>
<path d="M149.919 39.6143H149.063V33.9539H146.1V39.6143H145.244V33.1957H149.919V39.6143Z" fill="white"/>
<path d="M150.531 39.6143L152.701 33.1957H153.756L155.926 39.6143H155.021L154.438 37.8208H151.979L151.396 39.6143H150.531ZM154.202 37.0933L153.207 34.0659L152.217 37.0933H154.202Z" fill="white"/>
<path d="M161.209 39.6143H160.353V36.4722H157.39V39.6143H156.534V33.1957H157.39V35.7139H160.353V33.1957H161.209V39.6143Z" fill="white"/>
<path d="M167.144 39.6143H166.291V34.5191L163.382 39.6143H162.517V33.1957H163.371V38.2097L166.243 33.1957H167.147V39.6143H167.144Z" fill="white"/>
<path d="M172.559 39.6143H171.703V37.0625H170.731L168.805 39.6143H167.776L169.843 36.9338C169.411 36.7883 169.076 36.5617 168.837 36.2539C168.598 35.9489 168.481 35.5376 168.481 35.0228C168.481 34.6954 168.549 34.4128 168.686 34.175C168.822 33.9371 169.004 33.7413 169.229 33.5818C169.434 33.4391 169.673 33.3384 169.949 33.2796C170.222 33.2236 170.526 33.1929 170.856 33.1929H172.559V39.6115V39.6143ZM171.703 36.349V33.926H170.813C170.566 33.926 170.367 33.9427 170.216 33.9735C170.065 34.0043 169.929 34.0631 169.806 34.147C169.673 34.2365 169.57 34.3624 169.496 34.5219C169.422 34.6842 169.383 34.8605 169.383 35.0536C169.383 35.283 169.408 35.4733 169.462 35.6271C169.516 35.781 169.602 35.9153 169.721 36.0329C169.852 36.1588 170.008 36.2455 170.196 36.2875C170.384 36.3294 170.6 36.3518 170.85 36.3518H171.706L171.703 36.349Z" fill="white"/>
<path d="M68.4508 25.4172H66.5568V13.0584H60.0019V25.4172H58.1079V11.3991H68.4508V25.4172Z" fill="#19CDA2"/>
<path d="M80.4285 25.4172H78.5346V19.8435H76.3818L72.1247 25.4172H69.8468L74.4196 19.5609C73.4641 19.242 72.7219 18.7467 72.1958 18.078C71.6697 17.4093 71.4052 16.5139 71.4052 15.3891C71.4052 14.6728 71.5559 14.0572 71.8602 13.5396C72.1645 13.022 72.5626 12.5911 73.0603 12.2441C73.5124 11.9308 74.0414 11.7097 74.6471 11.5838C75.2528 11.4579 75.924 11.3963 76.6577 11.3963H80.4285V25.4144V25.4172ZM78.5346 18.2906V12.9996H76.5638C76.015 12.9996 75.5742 13.0332 75.2443 13.1031C74.9116 13.1731 74.6101 13.299 74.3343 13.4809C74.0414 13.6767 73.811 13.9481 73.6461 14.3007C73.4812 14.6532 73.3987 15.0393 73.3987 15.4591C73.3987 15.9599 73.4584 16.3796 73.575 16.7098C73.6916 17.0427 73.8821 17.3365 74.1438 17.5939C74.431 17.8709 74.7808 18.0556 75.196 18.1507C75.6112 18.2459 76.0918 18.2906 76.6406 18.2906H78.5346Z" fill="#19CDA2"/>
<path d="M86.648 25.4172V13.0583H81.8647V11.4019H93.328V13.0583H88.5448V25.4172H86.6508H86.648Z" fill="#19CDA2"/>
<path d="M104.155 21.0775C104.155 21.7546 104.021 22.3701 103.754 22.9214C103.486 23.4726 103.125 23.923 102.673 24.2672C102.138 24.6813 101.564 24.9751 100.95 25.1514C100.335 25.3277 99.5477 25.4144 98.578 25.4144H94.7616V11.3963H96.6556V16.8944H98.6348C99.6046 16.8944 100.395 16.9504 101.007 17.0595C101.618 17.1686 102.195 17.4317 102.738 17.8458C103.222 18.2151 103.58 18.674 103.811 19.2196C104.041 19.7652 104.155 20.3836 104.155 21.0747V21.0775ZM102.175 21.1138C102.175 20.6438 102.096 20.2297 101.942 19.8715C101.786 19.5134 101.538 19.2252 101.2 19.0041C100.85 18.7719 100.443 18.632 99.9856 18.5816C99.5278 18.5313 98.8794 18.5061 98.0433 18.5061H96.6556V23.8251H97.995C98.8424 23.8251 99.4965 23.7831 99.9515 23.702C100.407 23.6209 100.807 23.4642 101.152 23.2319C101.51 22.9885 101.769 22.7003 101.931 22.3701C102.093 22.04 102.175 21.6231 102.175 21.1138ZM107.323 25.4172H105.429V11.3991H107.323V25.4172Z" fill="#19CDA2"/>
<path d="M120.449 25.4172H118.564V14.2895L112.125 25.4172H110.212V11.3991H112.097V22.3477L118.45 11.3991H120.449V25.4172ZM119.053 7.20209C119.027 8.14222 118.723 8.90328 118.143 9.47967C117.563 10.0561 116.684 10.3471 115.512 10.3471C114.341 10.3471 113.462 10.0589 112.882 9.47967C112.302 8.90048 111.997 8.14222 111.972 7.20209H113.675C113.687 7.90439 113.849 8.41083 114.153 8.72141C114.457 9.03199 114.912 9.18868 115.512 9.18868C116.112 9.18868 116.573 9.03479 116.875 8.72701C117.176 8.41922 117.335 7.90999 117.349 7.20209H119.053Z" fill="#19CDA2"/>
<path d="M136.855 11.4019L131.688 23.2068C131.472 23.702 131.227 24.1021 130.957 24.4015C130.687 24.7037 130.403 24.9275 130.11 25.0786C129.817 25.2353 129.527 25.3389 129.242 25.3892C128.958 25.4396 128.673 25.4648 128.386 25.4648C128.13 25.4648 127.832 25.4592 127.488 25.4452C127.144 25.4312 126.925 25.4228 126.828 25.4172V23.6768H126.962C127.058 23.688 127.203 23.7048 127.397 23.7188C127.59 23.7356 127.837 23.7412 128.139 23.7412C128.278 23.7412 128.446 23.7328 128.637 23.7188C128.827 23.702 129.003 23.6572 129.163 23.5817C129.347 23.495 129.521 23.3774 129.683 23.2291C129.845 23.0809 129.993 22.8486 130.127 22.5268L130.451 21.7826L125.446 11.3991H127.542L131.406 19.6449L134.899 11.3991H136.849L136.855 11.4019Z" fill="white"/>
<path d="M146.624 13.0584H140.069V25.4172H138.175V11.3991H146.624V13.0556V13.0584Z" fill="white"/>
<path d="M158.192 13.0108C158.735 13.6263 159.156 14.3874 159.455 15.2995C159.753 16.2089 159.904 17.2469 159.904 18.4165C159.904 19.5861 159.756 20.5794 159.463 21.4943C159.17 22.4093 158.747 23.1787 158.189 23.7999C157.609 24.4518 156.932 24.9331 156.156 25.2437C155.382 25.5543 154.529 25.7109 153.597 25.7109C152.664 25.7109 151.765 25.5515 150.994 25.2297C150.224 24.9107 149.558 24.4323 149.004 23.7999C148.455 23.1787 148.034 22.4121 147.741 21.5027C147.448 20.5934 147.3 19.5637 147.3 18.4137C147.3 17.2637 147.448 16.1977 147.744 15.3079C148.04 14.4154 148.464 13.6515 149.012 13.0108C149.561 12.3896 150.221 11.9167 150.997 11.595C151.774 11.2732 152.638 11.1109 153.597 11.1109C154.555 11.1109 155.439 11.276 156.219 11.6089C156.998 11.9419 157.655 12.4092 158.189 13.0108H158.192ZM157.933 18.4137C157.933 17.4848 157.831 16.6622 157.626 15.9487C157.421 15.2324 157.134 14.6392 156.765 14.1691C156.389 13.6851 155.934 13.3241 155.4 13.0807C154.868 12.8401 154.271 12.717 153.605 12.717C152.94 12.717 152.314 12.8345 151.802 13.0695C151.287 13.3045 150.835 13.6711 150.437 14.1663C150.062 14.642 149.772 15.2436 149.573 15.9655C149.371 16.6873 149.271 17.5044 149.271 18.4137C149.271 20.252 149.664 21.6594 150.448 22.6359C151.233 23.6124 152.286 24.0993 153.605 24.0993C154.925 24.0993 155.977 23.6124 156.759 22.6359C157.541 21.6594 157.93 20.252 157.93 18.4137H157.933Z" fill="white"/>
<path d="M172.371 25.4172H170.477V13.0583H165.674C165.654 13.769 165.628 14.4601 165.597 15.1344C165.566 15.8088 165.54 16.4131 165.52 16.9476C165.469 18.271 165.387 19.3678 165.276 20.2324C165.165 21.097 165.02 21.8245 164.841 22.4065C164.667 22.9773 164.465 23.439 164.232 23.7915C163.999 24.1441 163.746 24.4379 163.473 24.6757C163.186 24.9331 162.878 25.1262 162.549 25.2549C162.219 25.3836 161.838 25.4479 161.405 25.4479C161.272 25.4479 161.135 25.4423 160.999 25.4339C160.862 25.4256 160.754 25.42 160.677 25.42V23.6124H160.811C160.874 23.618 160.928 23.6264 160.973 23.632C161.019 23.6376 161.084 23.6404 161.175 23.6404C161.405 23.6404 161.619 23.6068 161.818 23.5369C162.014 23.4669 162.185 23.3606 162.324 23.2179C162.759 22.7982 163.075 22.0483 163.277 20.9739C163.478 19.8967 163.618 18.4501 163.703 16.6286C163.734 16.013 163.766 15.2016 163.8 14.1915C163.831 13.1814 163.86 12.2525 163.885 11.4047H172.371V25.4228V25.4172Z" fill="white"/>
<path d="M27.7108 7.77811V0L17.9386 5.97188V12.3594L27.7108 7.77811Z" fill="white"/>
<path d="M6.56656 18.857L0 21.9346V25.6601L6.56656 23.2488V18.857Z" fill="white"/>
<path d="M6.56656 12.9248L0 16.9376V20.7702L6.56656 17.6925V12.9248Z" fill="white"/>
<path d="M17.9386 32.6742L27.7108 31.4639V24.7555L17.9386 27.1027V32.6742Z" fill="white"/>
<path d="M17.9386 26.0177L27.7108 23.6736V16.6106L17.9386 20.1986V26.0177Z" fill="white"/>
<path d="M16.8701 12.8606V6.62592L7.63525 12.2708V17.1913L16.8701 12.8606Z" fill="white"/>
<path d="M17.9386 40H27.7108V32.5244L17.9386 33.7317V40Z" fill="white"/>
<path d="M6.56656 24.3734L0 26.7818V30.327L6.56656 28.75V24.3734Z" fill="white"/>
<path d="M7.63525 28.4933L16.8701 26.2744V20.5898L7.63525 23.9792V28.4933Z" fill="white"/>
<path d="M7.63525 35.0092V40H16.8701V33.8661L7.63525 35.0092Z" fill="white"/>
<path d="M0 35.9535V40H6.56656V35.1406L0 35.9535Z" fill="white"/>
<path d="M39.0517 20.2231L29.1553 16.794V23.6858L39.0517 26.0269V20.2231Z" fill="#19CDA2"/>
<path d="M40.1202 19.4804L48.6965 22.4511V17.9798L40.1202 14.022V19.4804Z" fill="#19CDA2"/>
<path d="M39.0517 27.1088L29.1553 24.7677V31.4547L39.0517 32.6497V27.1088Z" fill="#19CDA2"/>
<path d="M39.0517 6.04829L29.1553 0V7.80256L39.0517 12.3686V6.04829Z" fill="#19CDA2"/>
<path d="M48.6965 16.8184V11.9468L40.1202 6.7023V12.8606L48.6965 16.8184Z" fill="#19CDA2"/>
<path d="M39.0517 13.5299L29.1553 8.96393V15.6785L39.0517 19.1106V13.5299Z" fill="#19CDA2"/>
<path d="M40.1202 32.7781L48.6965 33.8141V29.3887L40.1202 27.3594V32.7781Z" fill="#19CDA2"/>
<path d="M29.1553 32.5122V40H39.0517V33.7103L29.1553 32.5122Z" fill="#19CDA2"/>
<path d="M40.1202 20.5929V26.2806L48.6965 28.3069V23.5666L40.1202 20.5929Z" fill="#19CDA2"/>
<path d="M40.1202 40H48.6965V34.8747L40.1202 33.8386V40Z" fill="#19CDA2"/>
</svg>
