<svg width="24" height="24" viewBox="0 0 24 24" fill="none" xmlns="http://www.w3.org/2000/svg">
<path fill-rule="evenodd" clip-rule="evenodd" d="M10.92 14.7839L8.71601 12.5799C8.10729 11.9712 7.95638 11.0412 8.34137 10.2713L8.46625 10.0215C8.85124 9.25153 8.70033 8.32159 8.09161 7.71287L5.3588 4.98006C5.16354 4.7848 4.84696 4.7848 4.6517 4.98006C4.6137 5.01807 4.58207 5.06194 4.55804 5.11001L3.45406 7.31796C2.60951 9.00707 2.94056 11.0471 4.27592 12.3825L10.2747 18.3813C11.7283 19.8348 13.8783 20.3424 15.8284 19.6923L18.2429 18.8875C18.5049 18.8002 18.6465 18.517 18.5591 18.255C18.5346 18.1814 18.4932 18.1145 18.4383 18.0596L15.7871 15.4083C15.1784 14.7996 14.2484 14.6487 13.4784 15.0337L13.2287 15.1586C12.4587 15.5436 11.5288 15.3927 10.92 14.7839Z" fill="#054448"/>
<path fill-rule="evenodd" clip-rule="evenodd" d="M9.68696 4.01369L9.50191 2.02227C12.7394 1.72144 15.959 2.85235 18.3033 5.19667C20.6444 7.53774 21.7755 10.7517 21.4789 13.9851L19.4873 13.8024C19.7301 11.1546 18.8055 8.52732 16.8891 6.61088C14.97 4.69179 12.3382 3.76734 9.68696 4.01369ZM10.0433 7.99794L9.85193 6.00712C11.9188 5.80844 13.9777 6.5279 15.4749 8.02509C16.9672 9.51738 17.687 11.5678 17.4947 13.6284L15.5034 13.4426C15.6409 11.9685 15.1275 10.5062 14.0607 9.43931C12.9903 8.36893 11.5219 7.85581 10.0433 7.99794Z" fill="#054448"/>
</svg>
