<svg width="32" height="33" viewBox="0 0 32 33" fill="none" xmlns="http://www.w3.org/2000/svg">
<path d="M26 7.45607H22.5375L20.8375 4.90607C20.747 4.76664 20.6229 4.6523 20.4765 4.57364C20.3301 4.49498 20.1662 4.45454 20 4.45607H12C11.8338 4.45454 11.6699 4.49498 11.5235 4.57364C11.3771 4.6523 11.253 4.76664 11.1625 4.90607L9.4625 7.45607H6C5.20536 7.45936 4.44421 7.77648 3.88231 8.33838C3.32042 8.90028 3.00329 9.66143 3 10.4561V24.4561C3.00329 25.2507 3.32042 26.0119 3.88231 26.5737C4.44421 27.1356 5.20536 27.4528 6 27.4561H26C26.7946 27.4528 27.5558 27.1356 28.1177 26.5737C28.6796 26.0119 28.9967 25.2507 29 24.4561V10.4561C28.9967 9.66143 28.6796 8.90028 28.1177 8.33838C27.5558 7.77648 26.7946 7.45936 26 7.45607ZM20.5 16.9561C20.5 17.8461 20.2361 18.7161 19.7416 19.4561C19.2471 20.1962 18.5443 20.7729 17.7221 21.1135C16.8998 21.4541 15.995 21.5432 15.1221 21.3696C14.2492 21.196 13.4474 20.7674 12.818 20.138C12.1887 19.5087 11.7601 18.7069 11.5865 17.834C11.4128 16.9611 11.5019 16.0563 11.8425 15.234C12.1831 14.4117 12.7599 13.7089 13.4999 13.2145C14.24 12.72 15.11 12.4561 16 12.4561C17.1935 12.4561 18.3381 12.9302 19.182 13.7741C20.0259 14.618 20.5 15.7626 20.5 16.9561Z" fill="#FBFAF2"/>
</svg>
