<svg width="83" height="83" viewBox="0 0 83 83" fill="none" xmlns="http://www.w3.org/2000/svg">
<path d="M70.3333 55.6667C69.8896 56.6721 69.7573 57.7873 69.9533 58.8686C70.1494 59.9499 70.6649 60.9477 71.4333 61.7333L71.6333 61.9333C72.2532 62.5525 72.7449 63.2877 73.0804 64.0971C73.4159 64.9064 73.5886 65.7739 73.5886 66.65C73.5886 67.5261 73.4159 68.3936 73.0804 69.2029C72.7449 70.0123 72.2532 70.7475 71.6333 71.3667C71.0142 71.9865 70.2789 72.4782 69.4696 72.8137C68.6603 73.1492 67.7928 73.3219 66.9167 73.3219C66.0406 73.3219 65.1731 73.1492 64.3637 72.8137C63.5544 72.4782 62.8192 71.9865 62.2 71.3667L62 71.1667C61.2144 70.3982 60.2166 69.8827 59.1353 69.6867C58.054 69.4906 56.9387 69.623 55.9333 70.0667C54.9474 70.4892 54.1066 71.1908 53.5144 72.0851C52.9221 72.9794 52.6043 74.0274 52.6 75.1V75.6667C52.6 77.4348 51.8976 79.1305 50.6474 80.3807C49.3971 81.631 47.7014 82.3333 45.9333 82.3333C44.1652 82.3333 42.4695 81.631 41.2193 80.3807C39.969 79.1305 39.2667 77.4348 39.2667 75.6667V75.3667C39.2409 74.2634 38.8837 73.1933 38.2417 72.2957C37.5997 71.398 36.7025 70.7143 35.6667 70.3333C34.6613 69.8896 33.546 69.7573 32.4647 69.9533C31.3834 70.1494 30.3856 70.6649 29.6 71.4333L29.4 71.6333C28.7808 72.2532 28.0456 72.7449 27.2363 73.0804C26.4269 73.4159 25.5594 73.5886 24.6833 73.5886C23.8072 73.5886 22.9397 73.4159 22.1304 73.0804C21.3211 72.7449 20.5858 72.2532 19.9667 71.6333C19.3468 71.0142 18.8551 70.2789 18.5196 69.4696C18.1841 68.6603 18.0114 67.7928 18.0114 66.9167C18.0114 66.0406 18.1841 65.1731 18.5196 64.3637C18.8551 63.5544 19.3468 62.8192 19.9667 62.2L20.1667 62C20.9351 61.2144 21.4506 60.2166 21.6467 59.1353C21.8427 58.054 21.7104 56.9387 21.2667 55.9333C20.8441 54.9474 20.1425 54.1066 19.2482 53.5144C18.3539 52.9221 17.306 52.6043 16.2333 52.6H15.6667C13.8986 52.6 12.2029 51.8976 10.9526 50.6474C9.70238 49.3971 9 47.7014 9 45.9333C9 44.1652 9.70238 42.4695 10.9526 41.2193C12.2029 39.969 13.8986 39.2667 15.6667 39.2667H15.9667C17.07 39.2409 18.14 38.8837 19.0377 38.2417C19.9353 37.5997 20.6191 36.7025 21 35.6667C21.4437 34.6613 21.5761 33.546 21.38 32.4647C21.184 31.3834 20.6685 30.3856 19.9 29.6L19.7 29.4C19.0802 28.7808 18.5884 28.0456 18.2529 27.2363C17.9174 26.4269 17.7448 25.5594 17.7448 24.6833C17.7448 23.8072 17.9174 22.9397 18.2529 22.1304C18.5884 21.3211 19.0802 20.5858 19.7 19.9667C20.3192 19.3468 21.0544 18.8551 21.8637 18.5196C22.6731 18.1841 23.5406 18.0114 24.4167 18.0114C25.2928 18.0114 26.1603 18.1841 26.9696 18.5196C27.7789 18.8551 28.5142 19.3468 29.1333 19.9667L29.3333 20.1667C30.1189 20.9351 31.1167 21.4506 32.198 21.6467C33.2794 21.8427 34.3946 21.7104 35.4 21.2667H35.6667C36.6526 20.8441 37.4934 20.1425 38.0856 19.2482C38.6779 18.3539 38.9957 17.306 39 16.2333V15.6667C39 13.8986 39.7024 12.2029 40.9526 10.9526C42.2029 9.70238 43.8986 9 45.6667 9C47.4348 9 49.1305 9.70238 50.3807 10.9526C51.631 12.2029 52.3333 13.8986 52.3333 15.6667V15.9667C52.3376 17.0393 52.6554 18.0873 53.2477 18.9816C53.8399 19.8759 54.6808 20.5775 55.6667 21C56.6721 21.4437 57.7873 21.5761 58.8686 21.38C59.9499 21.184 60.9477 20.6685 61.7333 19.9L61.9333 19.7C62.5525 19.0802 63.2877 18.5884 64.0971 18.2529C64.9064 17.9174 65.7739 17.7448 66.65 17.7448C67.5261 17.7448 68.3936 17.9174 69.2029 18.2529C70.0123 18.5884 70.7475 19.0802 71.3667 19.7C71.9865 20.3192 72.4782 21.0544 72.8137 21.8637C73.1492 22.6731 73.3219 23.5406 73.3219 24.4167C73.3219 25.2928 73.1492 26.1603 72.8137 26.9696C72.4782 27.7789 71.9865 28.5142 71.3667 29.1333L71.1667 29.3333C70.3982 30.1189 69.8827 31.1167 69.6867 32.198C69.4906 33.2794 69.623 34.3946 70.0667 35.4V35.6667C70.4892 36.6526 71.1908 37.4934 72.0851 38.0856C72.9794 38.6779 74.0274 38.9957 75.1 39H75.6667C77.4348 39 79.1305 39.7024 80.3807 40.9526C81.631 42.2029 82.3333 43.8986 82.3333 45.6667C82.3333 47.4348 81.631 49.1305 80.3807 50.3807C79.1305 51.631 77.4348 52.3333 75.6667 52.3333H75.3667C74.294 52.3376 73.2461 52.6554 72.3518 53.2477C71.4575 53.8399 70.7559 54.6808 70.3333 55.6667Z" fill="#FFEDE0"/>
<path d="M37.6665 47.6665C43.1894 47.6665 47.6665 43.1894 47.6665 37.6665C47.6665 32.1437 43.1894 27.6665 37.6665 27.6665C32.1437 27.6665 27.6665 32.1437 27.6665 37.6665C27.6665 43.1894 32.1437 47.6665 37.6665 47.6665Z" stroke="#EF7836" stroke-width="2" stroke-linecap="round" stroke-linejoin="round"/>
<path d="M62.3333 47.6667C61.8896 48.6721 61.7573 49.7873 61.9533 50.8686C62.1494 51.9499 62.6649 52.9477 63.4333 53.7333L63.6333 53.9333C64.2532 54.5525 64.7449 55.2877 65.0804 56.0971C65.4159 56.9064 65.5886 57.7739 65.5886 58.65C65.5886 59.5261 65.4159 60.3936 65.0804 61.2029C64.7449 62.0123 64.2532 62.7475 63.6333 63.3667C63.0142 63.9865 62.2789 64.4782 61.4696 64.8137C60.6603 65.1492 59.7928 65.3219 58.9167 65.3219C58.0406 65.3219 57.1731 65.1492 56.3637 64.8137C55.5544 64.4782 54.8192 63.9865 54.2 63.3667L54 63.1667C53.2144 62.3982 52.2166 61.8827 51.1353 61.6867C50.054 61.4906 48.9387 61.623 47.9333 62.0667C46.9474 62.4892 46.1066 63.1908 45.5144 64.0851C44.9221 64.9794 44.6043 66.0274 44.6 67.1V67.6667C44.6 69.4348 43.8976 71.1305 42.6474 72.3807C41.3971 73.631 39.7014 74.3333 37.9333 74.3333C36.1652 74.3333 34.4695 73.631 33.2193 72.3807C31.969 71.1305 31.2667 69.4348 31.2667 67.6667V67.3667C31.2409 66.2634 30.8837 65.1933 30.2417 64.2957C29.5997 63.398 28.7025 62.7143 27.6667 62.3333C26.6613 61.8896 25.546 61.7573 24.4647 61.9533C23.3834 62.1494 22.3856 62.6649 21.6 63.4333L21.4 63.6333C20.7808 64.2532 20.0456 64.7449 19.2363 65.0804C18.4269 65.4159 17.5594 65.5886 16.6833 65.5886C15.8072 65.5886 14.9397 65.4159 14.1304 65.0804C13.3211 64.7449 12.5858 64.2532 11.9667 63.6333C11.3468 63.0142 10.8551 62.2789 10.5196 61.4696C10.1841 60.6603 10.0114 59.7928 10.0114 58.9167C10.0114 58.0406 10.1841 57.1731 10.5196 56.3637C10.8551 55.5544 11.3468 54.8192 11.9667 54.2L12.1667 54C12.9351 53.2144 13.4506 52.2166 13.6467 51.1353C13.8427 50.054 13.7104 48.9387 13.2667 47.9333C12.8441 46.9474 12.1425 46.1066 11.2482 45.5144C10.3539 44.9221 9.30596 44.6043 8.23333 44.6H7.66667C5.89856 44.6 4.20286 43.8976 2.95262 42.6474C1.70238 41.3971 1 39.7014 1 37.9333C1 36.1652 1.70238 34.4695 2.95262 33.2193C4.20286 31.969 5.89856 31.2667 7.66667 31.2667H7.96667C9.06998 31.2409 10.14 30.8837 11.0377 30.2417C11.9353 29.5997 12.6191 28.7025 13 27.6667C13.4437 26.6613 13.5761 25.546 13.38 24.4647C13.184 23.3834 12.6685 22.3856 11.9 21.6L11.7 21.4C11.0802 20.7808 10.5884 20.0456 10.2529 19.2363C9.91744 18.4269 9.74476 17.5594 9.74476 16.6833C9.74476 15.8072 9.91744 14.9397 10.2529 14.1304C10.5884 13.3211 11.0802 12.5858 11.7 11.9667C12.3192 11.3468 13.0544 10.8551 13.8637 10.5196C14.6731 10.1841 15.5406 10.0114 16.4167 10.0114C17.2928 10.0114 18.1603 10.1841 18.9696 10.5196C19.7789 10.8551 20.5142 11.3468 21.1333 11.9667L21.3333 12.1667C22.1189 12.9351 23.1167 13.4506 24.198 13.6467C25.2794 13.8427 26.3946 13.7104 27.4 13.2667H27.6667C28.6526 12.8441 29.4934 12.1425 30.0856 11.2482C30.6779 10.3539 30.9957 9.30596 31 8.23333V7.66667C31 5.89856 31.7024 4.20286 32.9526 2.95262C34.2029 1.70238 35.8986 1 37.6667 1C39.4348 1 41.1305 1.70238 42.3807 2.95262C43.631 4.20286 44.3333 5.89856 44.3333 7.66667V7.96667C44.3376 9.03929 44.6554 10.0873 45.2477 10.9816C45.8399 11.8759 46.6808 12.5775 47.6667 13C48.6721 13.4437 49.7873 13.5761 50.8686 13.38C51.9499 13.184 52.9477 12.6685 53.7333 11.9L53.9333 11.7C54.5525 11.0802 55.2877 10.5884 56.0971 10.2529C56.9064 9.91744 57.7739 9.74476 58.65 9.74476C59.5261 9.74476 60.3936 9.91744 61.2029 10.2529C62.0123 10.5884 62.7475 11.0802 63.3667 11.7C63.9865 12.3192 64.4782 13.0544 64.8137 13.8637C65.1492 14.6731 65.3219 15.5406 65.3219 16.4167C65.3219 17.2928 65.1492 18.1603 64.8137 18.9696C64.4782 19.7789 63.9865 20.5142 63.3667 21.1333L63.1667 21.3333C62.3982 22.1189 61.8827 23.1167 61.6867 24.198C61.4906 25.2794 61.623 26.3946 62.0667 27.4V27.6667C62.4892 28.6526 63.1908 29.4934 64.0851 30.0856C64.9794 30.6779 66.0274 30.9957 67.1 31H67.6667C69.4348 31 71.1305 31.7024 72.3807 32.9526C73.631 34.2029 74.3333 35.8986 74.3333 37.6667C74.3333 39.4348 73.631 41.1305 72.3807 42.3807C71.1305 43.631 69.4348 44.3333 67.6667 44.3333H67.3667C66.294 44.3376 65.2461 44.6554 64.3518 45.2477C63.4575 45.8399 62.7559 46.6808 62.3333 47.6667Z" stroke="#107A82" stroke-width="2" stroke-linecap="round" stroke-linejoin="round"/>
</svg>
