<svg width="69" height="77" viewBox="0 0 69 77" fill="none" xmlns="http://www.w3.org/2000/svg">
<path d="M9 33.0001L39 9.66675L69 33.0001V69.6667C69 71.4349 68.2976 73.1305 67.0474 74.3808C65.7971 75.631 64.1014 76.3334 62.3333 76.3334H15.6667C13.8986 76.3334 12.2029 75.631 10.9526 74.3808C9.70238 73.1305 9 71.4349 9 69.6667V33.0001Z" fill="#FFEDE0"/>
<path d="M21 68.3333V35H41V68.3333" stroke="#EF7836" stroke-width="2" stroke-linecap="round" stroke-linejoin="round"/>
<path d="M1 25.0001L31 1.66675L61 25.0001V61.6667C61 63.4349 60.2976 65.1305 59.0474 66.3808C57.7971 67.631 56.1014 68.3334 54.3333 68.3334H7.66667C5.89856 68.3334 4.20286 67.631 2.95262 66.3808C1.70238 65.1305 1 63.4349 1 61.6667V25.0001Z" stroke="#107A82" stroke-width="2" stroke-linecap="round" stroke-linejoin="round"/>
</svg>
