<svg width="76" height="69" viewBox="0 0 76 69" fill="none" xmlns="http://www.w3.org/2000/svg">
<path d="M15.6667 9H69C70.7681 9 72.4638 9.70238 73.714 10.9526C74.9643 12.2029 75.6667 13.8986 75.6667 15.6667V35.6667C75.6667 44.5072 72.1548 52.9857 65.9036 59.2369C59.6523 65.4881 51.1739 69 42.3333 69C37.9559 69 33.6214 68.1378 29.5772 66.4627C25.533 64.7875 21.8584 62.3322 18.7631 59.2369C12.5119 52.9857 9 44.5072 9 35.6667V15.6667C9 13.8986 9.70238 12.2029 10.9526 10.9526C12.2029 9.70238 13.8986 9 15.6667 9Z" fill="#FFEDE0"/>
<path d="M7.66667 1H61C62.7681 1 64.4638 1.70238 65.714 2.95262C66.9643 4.20286 67.6667 5.89856 67.6667 7.66667V27.6667C67.6667 36.5072 64.1548 44.9857 57.9036 51.2369C51.6523 57.4881 43.1739 61 34.3333 61C29.9559 61 25.6214 60.1378 21.5772 58.4627C17.533 56.7875 13.8584 54.3322 10.7631 51.2369C4.51189 44.9857 1 36.5072 1 27.6667V7.66667C1 5.89856 1.70238 4.20286 2.95262 2.95262C4.20286 1.70238 5.89856 1 7.66667 1Z" stroke="#107A82" stroke-width="2" stroke-linecap="round" stroke-linejoin="round"/>
<path d="M21 24.3333L34.3333 37.6666L47.6667 24.3333" stroke="#EF7836" stroke-width="2" stroke-linecap="round" stroke-linejoin="round"/>
</svg>
