<svg width="69" height="76" viewBox="0 0 69 76" fill="none" xmlns="http://www.w3.org/2000/svg">
<path d="M9 32.3333L39 9L69 32.3333V69C69 70.7681 68.2976 72.4638 67.0474 73.714C65.7971 74.9643 64.1014 75.6667 62.3333 75.6667H15.6667C13.8986 75.6667 12.2029 74.9643 10.9526 73.714C9.70238 72.4638 9 70.7681 9 69V32.3333Z" fill="#FFEDE0"/>
<path d="M1 24.3333L31 1L61 24.3333V61C61 62.7681 60.2976 64.4638 59.0474 65.714C57.7971 66.9643 56.1014 67.6667 54.3333 67.6667H7.66667C5.89856 67.6667 4.20286 66.9643 2.95262 65.714C1.70238 64.4638 1 62.7681 1 61V24.3333Z" stroke="#107A82" stroke-width="2" stroke-linecap="round" stroke-linejoin="round"/>
<path d="M41.8004 27.1997L20.2004 48.7997" stroke="#EF7836" stroke-width="2" stroke-linecap="round" stroke-linejoin="round"/>
<path d="M23.2 34.4C25.5196 34.4 27.4 32.5196 27.4 30.2C27.4 27.8804 25.5196 26 23.2 26C20.8804 26 19 27.8804 19 30.2C19 32.5196 20.8804 34.4 23.2 34.4Z" stroke="#EF7836" stroke-width="2" stroke-miterlimit="10"/>
<path d="M38.7999 49.9996C41.1194 49.9996 42.9999 48.1192 42.9999 45.7996C42.9999 43.48 41.1194 41.5996 38.7999 41.5996C36.4803 41.5996 34.5999 43.48 34.5999 45.7996C34.5999 48.1192 36.4803 49.9996 38.7999 49.9996Z" stroke="#EF7836" stroke-width="2" stroke-miterlimit="10"/>
</svg>
