<svg width="693" height="381" viewBox="0 0 693 381" fill="none" xmlns="http://www.w3.org/2000/svg">
<path fill-rule="evenodd" clip-rule="evenodd" d="M693 367V371H689C691.209 371 693 369.209 693 367ZM693 15V11H689C691.209 11 693 12.7909 693 15ZM87.04 11H13V85.169C13 84.1094 13.4204 83.0931 14.169 82.3432L84.2089 12.1742C84.9593 11.4224 85.9778 11 87.04 11ZM13 367C13 369.209 14.7909 371 17 371H13V367Z" fill="#054448"/>
<path d="M1 381L1 78.6569C1 77.596 1.42143 76.5786 2.17157 75.8284L77 1" stroke="#1E575B"/>
</svg>
