<svg width="291" height="221" viewBox="0 0 291 221" fill="none" xmlns="http://www.w3.org/2000/svg">
<path fill-rule="evenodd" clip-rule="evenodd" d="M291 207V211H287C289.209 211 291 209.209 291 207ZM291 15V11H287C289.209 11 291 12.7909 291 15ZM54.0352 11H11V54.1478C11 53.0889 11.4198 52.0732 12.1675 51.3234L51.2027 12.1756C51.9531 11.423 52.9723 11 54.0352 11ZM11 207C11 209.209 12.7909 211 15 211H11V207Z" fill="#054448"/>
<path d="M1 221V48.4333C1 47.3768 1.41802 46.3631 2.16279 45.6137L46.5 1" stroke="#1E575B"/>
</svg>
