<svg width="28" height="28" viewBox="0 0 28 28" fill="none" xmlns="http://www.w3.org/2000/svg">
<g clip-path="url(#clip0_205_944)">
<path d="M13.9925 0.00733095C6.26508 0.0089706 0.00208778 6.27464 0.00372744 14.0021C0.00427399 16.6778 0.772124 19.2973 2.21611 21.5499L0.0392533 27.1979C-0.0766703 27.4983 0.0728662 27.8358 0.373251 27.9517C0.440422 27.9777 0.511747 27.9909 0.583728 27.9908C0.650517 27.9912 0.716813 27.9797 0.779612 27.957L6.60951 25.8757C13.1688 29.9609 21.7979 27.9552 25.883 21.3959C29.9681 14.8366 27.9625 6.20758 21.4032 2.12243C19.1797 0.737579 16.6121 0.00476216 13.9925 0.00733095Z" fill="url(#paint0_linear_205_944)"/>
<path d="M20.6631 16.3905C20.6631 16.3905 19.2348 15.6909 18.3404 15.2245C17.3284 14.7033 16.1391 15.6792 15.5794 16.2343C14.7084 15.8997 13.9128 15.3947 13.2393 14.7488C12.5933 14.0754 12.0883 13.2798 11.7538 12.4087C12.3089 11.8479 13.2824 10.6597 12.7636 9.64767C12.303 8.7522 11.5976 7.32504 11.5976 7.3239C11.4987 7.12747 11.2976 7.00345 11.0776 7.00323H9.91163C8.21361 7.29651 6.979 8.77811 6.99671 10.5012C6.99671 12.3317 9.18756 15.8484 10.6649 17.3268C12.1422 18.8052 15.6588 20.995 17.4905 20.995C19.2136 21.0127 20.6952 19.778 20.9884 18.08V16.9141C20.9886 16.6917 20.8625 16.4887 20.6631 16.3905Z" fill="#FAFAFA"/>
</g>
<defs>
<linearGradient id="paint0_linear_205_944" x1="10.5" y1="28" x2="18" y2="5.5765e-08" gradientUnits="userSpaceOnUse">
<stop stop-color="#4CAF50"/>
<stop offset="1" stop-color="#74E979"/>
</linearGradient>
<clipPath id="clip0_205_944">
<rect width="28" height="28" fill="white"/>
</clipPath>
</defs>
</svg>
