<svg width="28" height="28" viewBox="0 0 28 28" fill="none" xmlns="http://www.w3.org/2000/svg">
<g clip-path="url(#clip0_205_941)">
<path d="M14 28C21.732 28 28 21.732 28 14C28 6.26803 21.732 0 14 0C6.26803 0 0 6.26803 0 14C0 21.732 6.26803 28 14 28Z" fill="url(#paint0_linear_205_941)"/>
<path d="M5.21397 14.6848C6.85056 13.7833 8.67744 13.031 10.3844 12.2747C13.321 11.0361 16.2693 9.81889 19.2473 8.6857C19.8268 8.49262 20.8678 8.30379 20.9699 9.16246C20.914 10.3779 20.6841 11.5862 20.5263 12.7945C20.126 15.4517 19.6633 18.0998 19.2121 20.7483C19.0566 21.6305 17.9515 22.0871 17.2444 21.5226C15.545 20.3747 13.8326 19.238 12.1549 18.0635C11.6054 17.5051 12.115 16.7032 12.6058 16.3044C14.0054 14.9251 15.4898 13.7532 16.8163 12.3025C17.1741 11.4385 16.1169 12.1667 15.7682 12.3898C13.852 13.7102 11.9828 15.1113 9.96258 16.2718C8.93067 16.8398 7.72795 16.3544 6.6965 16.0374C5.77167 15.6545 4.41655 15.2687 5.21397 14.6848Z" fill="white"/>
</g>
<defs>
<linearGradient id="paint0_linear_205_941" x1="17.5" y1="-5.47618e-07" x2="9" y2="28" gradientUnits="userSpaceOnUse">
<stop stop-color="#71D4FF"/>
<stop offset="1" stop-color="#1B90C0"/>
</linearGradient>
<clipPath id="clip0_205_941">
<rect width="28" height="28" fill="white"/>
</clipPath>
</defs>
</svg>
