<svg width="24" height="24" viewBox="0 0 24 24" fill="none" xmlns="http://www.w3.org/2000/svg">
<path d="M21.4594 4.65928C21.3706 4.58931 21.2671 4.54032 21.1567 4.51596C21.0463 4.49161 20.9318 4.49253 20.8218 4.51865L15.0843 5.95303L9.33747 3.0749H9.3281L9.2531 3.04678H9.23435L9.16873 3.02803H9.1406L9.07498 3.00928H8.82185L2.82185 4.50928C2.6567 4.54963 2.51015 4.6449 2.40625 4.77947C2.30234 4.91404 2.24724 5.07991 2.24997 5.2499V18.7499C2.24888 18.8642 2.2746 18.9772 2.32507 19.0798C2.37554 19.1823 2.44936 19.2717 2.5406 19.3405C2.67143 19.4438 2.83328 19.5 2.99997 19.4999L3.1781 19.4812L8.9156 18.0468L14.6625 20.9249H14.6719L14.7375 20.953H14.7469L14.8219 20.9812H15.1781L21.1781 19.4812C21.3417 19.4412 21.487 19.3473 21.5908 19.2146C21.6945 19.082 21.7506 18.9183 21.75 18.7499V5.2499C21.7511 5.13559 21.7253 5.02261 21.6749 4.92004C21.6244 4.81747 21.5506 4.72816 21.4594 4.65928ZM14.25 19.0405L9.74998 16.7905V4.95928L14.25 7.20928V19.0405Z" fill="#107A82"/>
</svg>
