<svg width="32" height="33" viewBox="0 0 32 33" fill="none" xmlns="http://www.w3.org/2000/svg">
<path d="M25 4.45605H20.4625C19.902 3.82649 19.2146 3.32266 18.4454 2.97766C17.6763 2.63266 16.8429 2.4543 16 2.4543C15.1571 2.4543 14.3237 2.63266 13.5546 2.97766C12.7854 3.32266 12.098 3.82649 11.5375 4.45605H7C6.46957 4.45605 5.96086 4.66676 5.58579 5.04184C5.21071 5.41691 5 5.92562 5 6.45605V27.456C5 27.9865 5.21071 28.4952 5.58579 28.8703C5.96086 29.2453 6.46957 29.456 7 29.456H25C25.5304 29.456 26.0391 29.2453 26.4142 28.8703C26.7893 28.4952 27 27.9865 27 27.456V6.45605C27 5.92562 26.7893 5.41691 26.4142 5.04184C26.0391 4.66676 25.5304 4.45605 25 4.45605ZM16 4.45605C17.0599 4.45935 18.0754 4.88183 18.8248 5.63126C19.5742 6.3807 19.9967 7.3962 20 8.45605H12C12.0033 7.3962 12.4258 6.3807 13.1752 5.63126C13.9246 4.88183 14.9401 4.45935 16 4.45605ZM20 20.456H12C11.7348 20.456 11.4804 20.3507 11.2929 20.1632C11.1054 19.9756 11 19.7213 11 19.456C11 19.1908 11.1054 18.9365 11.2929 18.7489C11.4804 18.5614 11.7348 18.456 12 18.456H20C20.2652 18.456 20.5196 18.5614 20.7071 18.7489C20.8946 18.9365 21 19.1908 21 19.456C21 19.7213 20.8946 19.9756 20.7071 20.1632C20.5196 20.3507 20.2652 20.456 20 20.456ZM20 16.456H12C11.7348 16.456 11.4804 16.3507 11.2929 16.1632C11.1054 15.9756 11 15.7213 11 15.456C11 15.1908 11.1054 14.9365 11.2929 14.7489C11.4804 14.5614 11.7348 14.456 12 14.456H20C20.2652 14.456 20.5196 14.5614 20.7071 14.7489C20.8946 14.9365 21 15.1908 21 15.456C21 15.7213 20.8946 15.9756 20.7071 16.1632C20.5196 16.3507 20.2652 16.456 20 16.456Z" fill="#FBFAF2"/>
</svg>
