<svg width="28" height="28" viewBox="0 0 28 28" fill="none" xmlns="http://www.w3.org/2000/svg">
<g clip-path="url(#clip0_205_1051)">
<path d="M14 2.625C12.0245 2.62485 10.083 3.1392 8.36664 4.11741C6.65031 5.09563 5.21832 6.50397 4.21168 8.20378C3.20503 9.9036 2.65844 11.8363 2.62571 13.8115C2.59298 15.7868 3.07524 17.7365 4.02501 19.4688L3.09532 22.7391C3.00788 23.04 3.00233 23.3588 3.07924 23.6626C3.15615 23.9664 3.31273 24.2441 3.53282 24.4672C3.7529 24.6883 4.02874 24.8458 4.33107 24.9228C4.6334 24.9998 4.95095 24.9936 5.25001 24.9047L8.53126 23.975C10.0519 24.8084 11.7429 25.2832 13.4751 25.363C15.2073 25.4427 16.9349 25.1254 18.5257 24.4353C20.1164 23.7451 21.5284 22.7004 22.6536 21.381C23.7788 20.0616 24.5874 18.5024 25.0177 16.8226C25.448 15.1427 25.4885 13.3868 25.1362 11.6889C24.7839 9.99103 24.048 8.39617 22.9849 7.02624C21.9218 5.6563 20.5596 4.54756 19.0023 3.78474C17.4451 3.02193 15.7341 2.62524 14 2.625ZM17.5 16.625H10.5C10.2679 16.625 10.0454 16.5328 9.88129 16.3687C9.7172 16.2046 9.62501 15.9821 9.62501 15.75C9.62501 15.5179 9.7172 15.2954 9.88129 15.1313C10.0454 14.9672 10.2679 14.875 10.5 14.875H17.5C17.7321 14.875 17.9546 14.9672 18.1187 15.1313C18.2828 15.2954 18.375 15.5179 18.375 15.75C18.375 15.9821 18.2828 16.2046 18.1187 16.3687C17.9546 16.5328 17.7321 16.625 17.5 16.625ZM17.5 13.125H10.5C10.2679 13.125 10.0454 13.0328 9.88129 12.8687C9.7172 12.7046 9.62501 12.4821 9.62501 12.25C9.62501 12.0179 9.7172 11.7954 9.88129 11.6313C10.0454 11.4672 10.2679 11.375 10.5 11.375H17.5C17.7321 11.375 17.9546 11.4672 18.1187 11.6313C18.2828 11.7954 18.375 12.0179 18.375 12.25C18.375 12.4821 18.2828 12.7046 18.1187 12.8687C17.9546 13.0328 17.7321 13.125 17.5 13.125Z" fill="#EF7836"/>
</g>
<defs>
<clipPath id="clip0_205_1051">
<rect width="28" height="28" fill="white"/>
</clipPath>
</defs>
</svg>
