<svg width="18" height="21" viewBox="0 0 18 21" fill="none" xmlns="http://www.w3.org/2000/svg">
<path d="M17.3157 9.96017C17.4608 10.1141 17.5411 10.321 17.5393 10.5359C17.5375 10.7507 17.4536 10.9561 17.3059 11.1074L9.3157 19.3493C8.29231 20.4062 6.9043 21 5.45701 21C4.00972 21 2.62171 20.4062 1.59832 19.3493C0.574934 18.2924 0 16.8589 0 15.3642C0 13.8695 0.574934 12.436 1.59832 11.3791L11.2743 1.25534C11.6323 0.8655 12.0622 0.55362 12.5388 0.338086C13.0153 0.122552 13.5288 0.00772593 14.049 0.000376626C14.5692 -0.00697268 15.0856 0.0933034 15.5676 0.295294C16.0497 0.497284 16.4878 0.796902 16.856 1.17648C17.2242 1.55607 17.515 2.00793 17.7115 2.50545C17.9079 3.00296 18.0059 3.53605 17.9997 4.0733C17.9935 4.61055 17.8833 5.14108 17.6754 5.63362C17.4675 6.12616 17.1663 6.57074 16.7895 6.94116L7.11352 17.0649C6.89724 17.2917 6.63935 17.4717 6.35492 17.5944C6.0705 17.7171 5.76524 17.78 5.45701 17.7794C4.99365 17.7806 4.54038 17.6396 4.15475 17.3743C3.76911 17.109 3.46848 16.7313 3.291 16.2893C3.11352 15.8472 3.0672 15.3607 3.15791 14.8914C3.24863 14.4221 3.47228 13.9912 3.8005 13.6534L11.9174 5.13981C11.9876 5.05845 12.0731 4.99266 12.1687 4.94644C12.2643 4.90022 12.368 4.87453 12.4735 4.87093C12.579 4.86732 12.6841 4.88588 12.7824 4.92548C12.8808 4.96507 12.9703 5.02488 13.0456 5.10127C13.1209 5.17766 13.1803 5.26905 13.2204 5.3699C13.2605 5.47074 13.2803 5.57894 13.2787 5.68793C13.2771 5.79692 13.254 5.90444 13.211 6.00396C13.1679 6.10349 13.1058 6.19294 13.0282 6.26691L4.91134 14.7906C4.83745 14.8654 4.77872 14.9546 4.73856 15.0531C4.69841 15.1516 4.67765 15.2574 4.67748 15.3642C4.68034 15.5226 4.72782 15.6767 4.81412 15.8077C4.90043 15.9386 5.02181 16.0408 5.16343 16.1016C5.30505 16.1625 5.46077 16.1794 5.61155 16.1503C5.76232 16.1212 5.90163 16.0474 6.01243 15.9378L15.6786 5.80399C15.8983 5.58063 16.0726 5.31429 16.1913 5.02054C16.3101 4.7268 16.371 4.41155 16.3705 4.09322C16.3716 3.61467 16.2351 3.14656 15.9782 2.74829C15.7213 2.35002 15.3556 2.03954 14.9276 1.85625C14.4996 1.67296 14.0285 1.62512 13.5741 1.7188C13.1197 1.81249 12.7024 2.04347 12.3754 2.38244L2.70916 12.5163C2.33168 12.886 2.02969 13.33 1.821 13.8222C1.6123 14.3144 1.50112 14.8447 1.494 15.3819C1.48688 15.9192 1.58398 16.4524 1.77956 16.9503C1.97515 17.4482 2.26526 17.9006 2.6328 18.2808C3.00034 18.6611 3.43787 18.9615 3.91961 19.1644C4.40134 19.3672 4.91752 19.4684 5.43772 19.462C5.95793 19.4557 6.47163 19.3418 6.94855 19.1271C7.42546 18.9124 7.85594 18.6013 8.21461 18.2122L16.2048 9.96017C16.3526 9.809 16.5522 9.72419 16.7602 9.72419C16.9683 9.72419 17.1679 9.809 17.3157 9.96017Z" fill="#3EEC88"/>
</svg>
