<svg width="31" height="18" viewBox="0 0 31 18" fill="none" xmlns="http://www.w3.org/2000/svg">
<path d="M29.2693 17.6185L25.1738 17.673C25.1738 17.673 24.2951 17.8445 23.1339 17.0572C21.6039 16.0128 20.1603 13.3002 19.0305 13.651C17.8928 14.0096 17.9242 16.4571 17.9242 16.4571C17.9242 16.4571 17.9321 16.9793 17.6732 17.2599C17.3907 17.5639 16.8336 17.6263 16.8336 17.6263H14.9977C14.9977 17.6263 10.9571 17.8679 7.39506 14.181C3.51135 10.1668 0.0827067 2.19294 0.0827067 2.19294C0.0827067 2.19294 -0.11344 1.6707 0.0983982 1.42127C0.34162 1.14066 1.00067 1.11728 1.00067 1.11728L5.37867 1.0861C5.37867 1.0861 5.7945 1.15625 6.0848 1.36671C6.32802 1.54598 6.4614 1.87336 6.4614 1.87336C6.4614 1.87336 7.16753 3.65053 8.10903 5.26401C9.93712 8.40524 10.7923 9.09116 11.4121 8.75599C12.3144 8.26493 12.0477 4.31307 12.0477 4.31307C12.0477 4.31307 12.0634 2.87886 11.5926 2.2397C11.2238 1.74085 10.5334 1.60055 10.2353 1.56157C9.99204 1.5304 10.3922 0.961389 10.9179 0.704167C11.7024 0.322232 13.099 0.298848 14.7466 0.314437C16.0255 0.330026 16.3943 0.407972 16.8964 0.524891C18.4028 0.883443 17.8928 2.28647 17.8928 5.64595C17.8928 6.7216 17.6967 8.23376 18.4813 8.73261C18.8186 8.95086 19.6346 8.76379 21.6902 5.30298C22.6631 3.65832 23.3928 1.73305 23.3928 1.73305C23.3928 1.73305 23.5497 1.39009 23.8008 1.242C24.0518 1.0939 24.3971 1.14067 24.3971 1.14067L29.0104 1.10949C29.0104 1.10949 30.3992 0.9458 30.6188 1.56937C30.8542 2.22412 30.101 3.74406 28.218 6.23834C25.1267 10.3305 24.7815 9.94857 27.3471 12.3181C29.8029 14.5786 30.305 15.6776 30.3913 15.8179C31.4113 17.486 29.2693 17.6185 29.2693 17.6185Z" fill="#FAFBED"/>
</svg>
